<svg xmlns="http://www.w3.org/2000/svg" viewBox="0 0 142.52 68.15"><defs><style>.cls-1{fill:#fff1e1;}.cls-10,.cls-16,.cls-17,.cls-2{fill:#fff;}.cls-3{fill:#91b7e1;}.cls-4{fill:#307aba;}.cls-17,.cls-5{opacity:0.2;}.cls-18,.cls-6{fill:#44469c;}.cls-7{fill:#fab47f;}.cls-8{fill:#261214;}.cls-9{fill:#601110;}.cls-10,.cls-18{opacity:0.5;}.cls-11{fill:#ef8e45;}.cls-12{fill:#eb8840;}.cls-13{fill:#7f3422;}.cls-14{fill:#778dc6;}.cls-15{fill:#415da7;}.cls-16{opacity:0.3;}.cls-19{fill:#6880be;}.cls-20{font-size:19.4px;fill:#f29a33;font-family:MyriadPro-Bold, Myriad Pro;font-weight:700;}</style></defs><title>0</title><g id="Layer_2" data-name="Layer 2"><g id="Layer_1-2" data-name="Layer 1"><rect class="cls-1" width="142.52" height="68.15" rx="15" ry="15"/><circle class="cls-2" cx="38.37" cy="34.08" r="24.18"/><path class="cls-3" d="M44.82,34.65c0,.63,0,1.26,0,1.89q-.06,3.51-.37,7a5.62,5.62,0,0,1-5.18,5.08H37.49a5.64,5.64,0,0,1-5.18-5.08c-.2-2.33-.33-4.67-.37-7,0-.63,0-1.26,0-1.89q0-4.26.38-8.51a5.65,5.65,0,0,1,5.18-5.09h1.76a5.63,5.63,0,0,1,5.18,5.09C44.69,29,44.81,31.81,44.82,34.65Z"/><path class="cls-4" d="M43.36,23.37a9.32,9.32,0,0,1-.17,2,7.22,7.22,0,0,1-.67,2,6.79,6.79,0,0,1-1.23,1.68,8.5,8.5,0,0,1-1.66,1.27,17.59,17.59,0,0,1-1.85.91c-.63.26-1.27.52-1.92.75s-1.29.43-2,.62l-2,.52c1.28-.48,2.57-.91,3.83-1.41.63-.26,1.26-.52,1.87-.8A19.3,19.3,0,0,0,39.45,30a7.62,7.62,0,0,0,2.82-2.76A9.58,9.58,0,0,0,43.36,23.37Z"/><path class="cls-4" d="M32,36.48c.89.86,1.81,1.67,2.76,2.45s1.94,1.52,3,2.21a36.16,36.16,0,0,0,3.15,1.91,30.93,30.93,0,0,0,3.36,1.54,19,19,0,0,1-3.49-1.29,24.13,24.13,0,0,1-3.23-1.86,28.14,28.14,0,0,1-2.93-2.29A22.44,22.44,0,0,1,32,36.48Z"/><path class="cls-4" d="M38.56,30.68a10.55,10.55,0,0,1-2-.67,9.87,9.87,0,0,1-1.81-1A7.16,7.16,0,0,1,33.3,27.5a5,5,0,0,1-.91-1.87,7.79,7.79,0,0,0,1.13,1.69A9.57,9.57,0,0,0,35,28.67a13.88,13.88,0,0,0,1.72,1.09C37.32,30.08,37.94,30.38,38.56,30.68Z"/><path class="cls-5" d="M43.08,26.56c0-.18-.06-.34-.1-.5a6.86,6.86,0,0,0-.27-3.44,4.89,4.89,0,0,0-9.1,0,6.75,6.75,0,0,0-.27,3.44c0,.16-.07.32-.1.5l0,.19a3.67,3.67,0,0,0,1.32,2h0a1.85,1.85,0,0,0,.68.76,7.22,7.22,0,0,0,3,1.08,7.27,7.27,0,0,0,3-1.08,2,2,0,0,0,.72-.87v0a3.31,3.31,0,0,0,1.28-1.89Z"/><path class="cls-6" d="M44.82,33.73c0,.63,0,1.26,0,1.89a23.05,23.05,0,0,1-12.86,0c0-.63,0-1.26,0-1.89A23.16,23.16,0,0,0,44.82,33.73Z"/><path class="cls-7" d="M42.17,25.68a3.88,3.88,0,0,0-3.84-3.59H38a3.88,3.88,0,0,0-3.84,3.59c0,.74-.12,2.64,1.05,3.33a7.51,7.51,0,0,0,3,1,7.56,7.56,0,0,0,3-1C42.29,28.32,42.22,26.42,42.17,25.68Z"/><path class="cls-8" d="M39.28,24.08a1.41,1.41,0,0,1,.84,0,1.45,1.45,0,0,1,.66.45.08.08,0,0,1,0,.1.06.06,0,0,1-.09,0,1.28,1.28,0,0,0-.62-.3,1.23,1.23,0,0,0-.66.09.18.18,0,0,1-.24-.1.18.18,0,0,1,.09-.24Z"/><path class="cls-2" d="M40.71,25.8a1,1,0,0,0-.84-.76.82.82,0,0,0-.87.74,1.13,1.13,0,0,0,.87.44A1.09,1.09,0,0,0,40.71,25.8Z"/><path class="cls-9" d="M40.34,25.48a.53.53,0,0,1-1,.16.53.53,0,0,1,1-.16Z"/><path d="M40.1,25.51a.28.28,0,0,1-.24.33.28.28,0,0,1-.33-.24.3.3,0,0,1,.25-.33A.29.29,0,0,1,40.1,25.51Z"/><path class="cls-10" d="M40.16,25.33a.16.16,0,0,1-.13.18.15.15,0,0,1-.18-.13.16.16,0,0,1,.31-.05Z"/><path d="M40.71,25.8a1.61,1.61,0,0,0-.32-.43.89.89,0,0,0-.44-.23.92.92,0,0,0-.49.05.91.91,0,0,0-.38.35.67.67,0,0,1,.32-.47A.84.84,0,0,1,40,25a.82.82,0,0,1,.51.31A1,1,0,0,1,40.71,25.8Z"/><path class="cls-8" d="M37,24.08a1.38,1.38,0,0,0-.83,0,1.45,1.45,0,0,0-.66.45.08.08,0,0,0,0,.1.06.06,0,0,0,.09,0,1.28,1.28,0,0,1,.62-.3,1.19,1.19,0,0,1,.65.09.19.19,0,0,0,.25-.1.18.18,0,0,0-.1-.24s0,0,0,0Z"/><path class="cls-2" d="M35.61,25.8a1,1,0,0,1,.84-.76.83.83,0,0,1,.87.74,1.14,1.14,0,0,1-.88.44A1.09,1.09,0,0,1,35.61,25.8Z"/><path class="cls-9" d="M36,25.48a.53.53,0,0,0,.44.6.54.54,0,0,0,.6-.44.52.52,0,0,0-.44-.6A.52.52,0,0,0,36,25.48Z"/><path d="M36.21,25.51a.29.29,0,0,0,.24.33.28.28,0,0,0,.33-.24.28.28,0,0,0-.24-.33A.31.31,0,0,0,36.21,25.51Z"/><path class="cls-10" d="M36.16,25.33a.15.15,0,0,0,.13.18.15.15,0,0,0,.18-.13.16.16,0,0,0-.13-.18A.15.15,0,0,0,36.16,25.33Z"/><path d="M35.61,25.8a1.42,1.42,0,0,1,.32-.43.89.89,0,0,1,.44-.23.82.82,0,0,1,.87.4.7.7,0,0,0-.32-.47.87.87,0,0,0-.59-.11.83.83,0,0,0-.5.31A1,1,0,0,0,35.61,25.8Z"/><path class="cls-11" d="M39.43,28.16a1.3,1.3,0,0,1-2.54,0l.88.08h.78Z"/><path class="cls-2" d="M38.56,28.32a.21.21,0,1,1-.4,0v-.07h.39A.19.19,0,0,1,38.56,28.32Z"/><path class="cls-2" d="M38.16,28.32a.24.24,0,0,1-.2.26c-.12,0-.2-.12-.2-.26a.19.19,0,0,1,0-.08h.38S38.16,28.29,38.16,28.32Z"/><path class="cls-12" d="M37.56,27.33c0-.07.45,0,.6,0s.52-.07.6,0-.38.24-.6.24a.87.87,0,0,1-.32-.06C37.73,27.48,37.56,27.45,37.56,27.33Z"/><path class="cls-13" d="M37.24,22.57a3.5,3.5,0,0,0,1.59,1,1.34,1.34,0,0,1-.37-.82,1.14,1.14,0,0,0,.54.42,2.75,2.75,0,0,1-.17-.86c0-.43-.87-.63-.87-.63Z"/><path class="cls-14" d="M43,25.74a3.73,3.73,0,0,1-1,2.19.47.47,0,0,1-.09.06l0-.1a5.17,5.17,0,0,0,0-2.72,4,4,0,0,0-7.51,0,5.23,5.23,0,0,0,0,2.79v0l0,0a3.48,3.48,0,0,1-1-2.23,6.13,6.13,0,0,1,.27-3.27,5,5,0,0,1,9.1,0A6.23,6.23,0,0,1,43,25.74Z"/><path class="cls-15" d="M43.11,26.4a3.17,3.17,0,0,1-1.28,1.8l.12-.31a5.17,5.17,0,0,0,0-2.72,4,4,0,0,0-7.51,0,5.23,5.23,0,0,0,0,2.79l.13.33a3.51,3.51,0,0,1-1.32-1.89l0-.18c0-.17.06-.33.1-.48,1-4,3.67-4.24,4.82-4.24S42,21.74,43,25.74c0,.15.07.31.1.48Z"/><path class="cls-15" d="M37.43,34.29l-.1.89,0,.27,0,.25,0,.29-.08.71h0l-.09,0c-.48.16-3,.9-3.59.32s-.49-2.28,0-3.29a1.71,1.71,0,0,1,.14-.27s0,0,0,0h0a1.09,1.09,0,0,1,.13-.17l.05-.05s0,0,.06-.06l.1-.07c.64-.36,2.39.56,3.15,1Z"/><path class="cls-16" d="M36.8,33.93a5.87,5.87,0,0,1-3.32,3.12h0c-.56-.52-.49-2.28,0-3.29a1.71,1.71,0,0,1,.14-.27h0l.13-.17.06-.05s0,0,.06-.06a.24.24,0,0,1,.09-.06C34.5,32.78,36,33.47,36.8,33.93Z"/><path class="cls-17" d="M35.3,35a.32.32,0,0,1,0,.52c-.16.17-.37,0-.44,0s-.62-.35-.43-.69S35,34.65,35.3,35Z"/><path class="cls-15" d="M43.27,37.05c-.62.58-3.11-.16-3.59-.32l-.08,0h0L39.52,36l0-.29,0-.25-.14-1.16h0l.33-.2h0l.07,0c.79-.44,2.46-1.29,3.08-.94l.1.07.06.06.05.05a1.09,1.09,0,0,1,.13.17h0a1.73,1.73,0,0,1,.15.27C43.77,34.77,43.83,36.53,43.27,37.05Z"/><path class="cls-16" d="M43.32,33.76a3.39,3.39,0,0,1-2.88,2.94,3.53,3.53,0,0,1-.72,0H39.6L39.52,36l0-.29,0-.25,0-.27-.1-.89.33-.2h0l.07-.05c.79-.44,2.46-1.29,3.08-.94l.08.06h0l.06.06.05.05a1.09,1.09,0,0,1,.13.17h0v0h0A1.73,1.73,0,0,1,43.32,33.76Z"/><path class="cls-6" d="M42.59,34.2a14.06,14.06,0,0,1-2.64.08h-.63l.33-.2h0l.07,0c.79-.44,2.46-1.29,3.08-.94l.08.06a.82.82,0,0,1,.26.29h0C43.32,33.78,43.1,34.06,42.59,34.2Z"/><path class="cls-5" d="M43.17,33.49h0a.82.82,0,0,0-.26-.29l-.08-.06-.11,0,0,0a.74.74,0,0,1,.26.29,0,0,0,0,1,0,0h0c.14.29-.08.58-.59.71a14.06,14.06,0,0,1-2.64.08h-.34l-.13.09H40a14.06,14.06,0,0,0,2.64-.08C43.1,34.06,43.32,33.78,43.17,33.49Z"/><path class="cls-17" d="M41.44,35a.33.33,0,0,0,0,.52c.16.17.38,0,.44,0s.62-.35.43-.69S41.78,34.65,41.44,35Z"/><polygon class="cls-18" points="40.56 35 39.45 35.45 39.42 35.19 40.56 35"/><polygon class="cls-18" points="40.61 36.17 40.14 36.09 39.52 35.99 39.48 35.7 39.48 35.7 40.16 35.99 40.61 36.17"/><polygon class="cls-18" points="37.33 35.19 37.29 35.45 36.55 35.15 36.19 35 36.56 35.06 37.33 35.19"/><polygon class="cls-18" points="37.27 35.7 37.23 35.99 37.23 35.99 36.61 36.09 36.13 36.17 36.59 35.99 37.27 35.7"/><path class="cls-5" d="M37.09,34.08l.34.21-.1.89,0,.27,0,.25,0,.29h0l-.08.71h0l-.09,0,0,0a.73.73,0,0,1-.38-.43l0-.19a.36.36,0,0,1,0-.1,3.94,3.94,0,0,1,0-.84s0-.06,0-.09a5.06,5.06,0,0,1,.08-.52.76.76,0,0,1,.15-.26A.93.93,0,0,1,37.09,34.08Z"/><path class="cls-6" d="M37.43,34.29h-.64a14.09,14.09,0,0,1-2.64-.08c-.5-.14-.72-.42-.58-.71,0,0,0,0,0,0h0a.72.72,0,0,1,.25-.29l.09-.06c.64-.36,2.39.56,3.15,1Z"/><path class="cls-5" d="M37,34.2a14.06,14.06,0,0,1-2.64-.08c-.51-.13-.73-.42-.58-.71h0a0,0,0,0,1,0,0,.82.82,0,0,1,.26-.29l.05,0-.16.06-.09.06a.72.72,0,0,0-.25.29h0s0,0,0,0c-.14.29.08.57.58.71a14.09,14.09,0,0,0,2.64.08h.64l-.14-.09Z"/><path class="cls-5" d="M40.15,36a.34.34,0,0,1,0,.1,1.06,1.06,0,0,1,0,.19.65.65,0,0,1-.38.43l0,0-.08,0h0L39.52,36l0-.29,0-.25-.14-1.16h0l.33-.2h0a.73.73,0,0,1,.29.19.63.63,0,0,1,.15.26,3.23,3.23,0,0,1,.08.53.19.19,0,0,1,0,.08A3.38,3.38,0,0,1,40.15,36Z"/><path class="cls-19" d="M39.48,36.78a6.89,6.89,0,0,1-2.22,0,.62.62,0,0,1-.44-.42,4.63,4.63,0,0,1,0-1.89.6.6,0,0,1,.44-.42,6.89,6.89,0,0,1,2.22,0,.59.59,0,0,1,.44.42,4.63,4.63,0,0,1,0,1.89A.6.6,0,0,1,39.48,36.78Z"/><path class="cls-16" d="M38.22,34.69c.23,0,.47,0,.71-.06s.7-.07.68-.16-.36-.24-.75-.27a4.87,4.87,0,0,0-1.08,0,1,1,0,0,0-.85.82,3.48,3.48,0,0,0,0,.79,1.16,1.16,0,0,0,.25.73c.06,0,.09-.31.13-.71,0-.1,0-.2,0-.31A1.11,1.11,0,0,1,38.22,34.69Z"/><text class="cls-20" transform="translate(87.36 39.15)">0-2</text></g></g></svg>