<svg xmlns="http://www.w3.org/2000/svg" viewBox="0 0 142.52 68.15"><defs><style>.cls-1{fill:#fff1e1;}.cls-10,.cls-2{fill:#fff;}.cls-3{fill:#6d2719;}.cls-4{fill:#c3c3c3;}.cls-5{fill:#fab47f;}.cls-6{fill:#eb8840;}.cls-7{opacity:0.2;}.cls-8{fill:#261214;}.cls-9{fill:#601110;}.cls-10{opacity:0.3;}.cls-11{fill:#ef8e45;}.cls-12{fill:#7f3422;}.cls-13{fill:#415da7;}.cls-14{fill:#314882;}.cls-15{fill:#e5e5e4;}.cls-16{font-size:19.4px;fill:#f29a33;font-family:MyriadPro-Bold, Myriad Pro;font-weight:700;}</style></defs><title>10</title><g id="Layer_2" data-name="Layer 2"><g id="Layer_1-2" data-name="Layer 1"><rect class="cls-1" width="142.52" height="68.15" rx="15" ry="15"/><circle class="cls-2" cx="38.37" cy="34.08" r="24.18"/><path class="cls-3" d="M37.71,19.63c.41-.34,1.06-.33,1.28-.58a1,1,0,0,1-.41.44c.59-.08.75.34,1.28.29a.8.8,0,0,1-.35.14,1.42,1.42,0,0,1,.88.91c.07.19.24.28.34.4a1.24,1.24,0,0,1-.44-.25,4.17,4.17,0,0,0,.19,1.08c-.16-.16-.21-.14-.25-.26,0,.34-.29.58-.18,1a.6.6,0,0,1-.23-.36,5,5,0,0,0-.31,1.32c-.07-.11-.25-.17-.29-.2a1.18,1.18,0,0,1-.14.44c-.13.08-1.36.17-1.47-.06s-.29-.49-.33-.59-.1.07-.11.17a4.18,4.18,0,0,0-.08-.47c-.05,0-.1,0-.15.07-.06-.32,0-.59-.06-.73a.93.93,0,0,0-.19.21,2,2,0,0,0-.08-.51,1,1,0,0,1-.15.17c0-.42,0-.63,0-.81-.13.07-.23,0-.36.09.16-.21.31-.78.53-1.18a.58.58,0,0,1-.36-.06c.56-.23.8-.64,1-.7S37.6,19.55,37.71,19.63Z"/><path class="cls-4" d="M39.07,24a5.18,5.18,0,0,1,.42.56l-.21.21h-.91l0-.78Z"/><path class="cls-5" d="M37,21.92c-.07-.11-.17-.26-.23-.25s-.15.31-.1.5a.72.72,0,0,0,.21.38c.07.06.2.14.22.1A1.76,1.76,0,0,0,37,21.92Z"/><path class="cls-6" d="M36.79,22.17l-.08-.1a.14.14,0,0,1,0-.07.13.13,0,0,1,0-.06s0-.05,0-.06a0,0,0,0,1,.07,0,.18.18,0,0,1,.1.09.19.19,0,0,1,0,.13s0,.08,0,.12,0,0,0,.06l0,0a.86.86,0,0,0,.07.1.73.73,0,0,0-.09-.08s0,0,0-.06a.17.17,0,0,1,0-.07l0-.12s0-.07,0-.1a.3.3,0,0,0-.08-.08s-.06,0-.08,0,0,0,0,.05a.13.13,0,0,0,0,.06A.3.3,0,0,0,36.79,22.17Z"/><path class="cls-5" d="M39.78,21.92c.06-.11.16-.26.22-.25s.15.31.11.5a.79.79,0,0,1-.22.38c-.06.06-.2.14-.22.1A2,2,0,0,1,39.78,21.92Z"/><path class="cls-6" d="M40,22.17l.06-.11s0,0,0-.06,0,0,0-.05-.05-.06-.08,0a.3.3,0,0,0-.08.08.12.12,0,0,0,0,.1.53.53,0,0,0,0,.12s0,.05,0,.07a.13.13,0,0,1,0,.06l-.09.08.08-.1,0,0a.13.13,0,0,0,0-.06.42.42,0,0,1,0-.12.19.19,0,0,1,0-.13.28.28,0,0,1,.1-.09.06.06,0,0,1,.08,0s0,0,0,.06a.07.07,0,0,1,0,.06.14.14,0,0,1,0,.07A.61.61,0,0,1,40,22.17Z"/><path class="cls-4" d="M37.68,24a4.43,4.43,0,0,0-.43.56l.22.21h.9l0-.78Z"/><path class="cls-5" d="M40.64,32.28c0,.26.16,2.71.1,3.52a21.92,21.92,0,0,1-.49,3,5.07,5.07,0,0,0-.2,1.71,13.6,13.6,0,0,1,.13,2.6c-.11.53-.72,3.09-.72,3.45a4.13,4.13,0,0,0,.08,1.22l-1,0V46.61c0-.25,0-3.37-.08-3.7a10.58,10.58,0,0,1,.13-1.37c0-.34,0-3.35-.08-3.74s-.14-1.91-.14-2.63c0,.72-.09,2.24-.14,2.63s-.09,3.4-.08,3.74a12.72,12.72,0,0,1,.14,1.37c0,.33-.08,3.45-.08,3.7v1.22l-1,0a4.13,4.13,0,0,0,.08-1.22c0-.36-.61-2.92-.72-3.45a13.63,13.63,0,0,1,.12-2.6,5,5,0,0,0-.19-1.71,21.92,21.92,0,0,1-.49-3c-.07-.81.08-3.26.1-3.52s.26-1.64.26-2.1-.25-2.38-.3-2.66-.44-1.86-.51-2.25a5.76,5.76,0,0,0,1.95-.87,3.28,3.28,0,0,0,.21-.59.86.86,0,0,0,0-.39H39a1,1,0,0,0,0,.39,3.35,3.35,0,0,0,.2.59,5.85,5.85,0,0,0,2,.87c-.07.39-.44,2-.5,2.25s-.31,2.2-.31,2.66S40.62,32,40.64,32.28Z"/><path class="cls-7" d="M39,23.81a.93.93,0,0,1-1.31,0,.86.86,0,0,0,0-.39H39A1,1,0,0,0,39,23.81Z"/><path class="cls-5" d="M39.85,20.94a1.54,1.54,0,0,0-3,0,4.47,4.47,0,0,0,.43,2.4,1.6,1.6,0,0,0,1,.63,1.6,1.6,0,0,0,1.05-.63A4.56,4.56,0,0,0,39.85,20.94Z"/><path class="cls-8" d="M38.14,21.51a.83.83,0,0,0-.49-.11,1.15,1.15,0,0,0-.42.16,3.27,3.27,0,0,1,.5,0,.72.72,0,0,0,.28,0S38.13,21.54,38.14,21.51Z"/><path class="cls-2" d="M38.05,22.22c0-.1,0-.37-.26-.41a.33.33,0,0,0-.41.23.37.37,0,0,0,.3.23A.83.83,0,0,0,38.05,22.22Z"/><path class="cls-9" d="M37.53,22a.21.21,0,0,0,.22.21A.21.21,0,0,0,38,22a.22.22,0,1,0-.43,0Z"/><path d="M37.61,22a.13.13,0,0,0,.14.13.13.13,0,0,0,.13-.13.13.13,0,0,0-.13-.14A.14.14,0,0,0,37.61,22Z"/><path class="cls-10" d="M37.59,21.93a.08.08,0,0,0,.08.07.07.07,0,0,0,.07-.07.07.07,0,0,0-.07-.08A.08.08,0,0,0,37.59,21.93Z"/><path d="M38.05,22.22A.67.67,0,0,0,38,22a.25.25,0,0,0-.19-.14.33.33,0,0,0-.24,0,.49.49,0,0,0-.17.18.42.42,0,0,1,.15-.22.35.35,0,0,1,.28,0,.38.38,0,0,1,.13.06A.36.36,0,0,1,38,22,.47.47,0,0,1,38.05,22.22Z"/><path class="cls-8" d="M38.6,21.51a.88.88,0,0,1,.5-.11,1.08,1.08,0,0,1,.41.16,3.34,3.34,0,0,0-.5,0,.66.66,0,0,1-.27,0A.39.39,0,0,1,38.6,21.51Z"/><path class="cls-2" d="M38.7,22.22c0-.1,0-.37.25-.41a.35.35,0,0,1,.42.23.39.39,0,0,1-.3.23A.79.79,0,0,1,38.7,22.22Z"/><path class="cls-9" d="M39.21,22a.21.21,0,0,1-.42,0,.21.21,0,1,1,.42,0Z"/><path d="M39.13,22a.13.13,0,0,1-.26,0,.13.13,0,1,1,.26,0Z"/><path class="cls-10" d="M39.15,21.93a.07.07,0,0,1-.07.07.08.08,0,0,1-.08-.07.08.08,0,0,1,.08-.08A.07.07,0,0,1,39.15,21.93Z"/><path d="M38.7,22.22a.46.46,0,0,1,0-.26.27.27,0,0,1,.09-.12.31.31,0,0,1,.13-.06.32.32,0,0,1,.27,0,.38.38,0,0,1,.16.22.52.52,0,0,0-.18-.18.33.33,0,0,0-.24,0,.23.23,0,0,0-.18.14A.51.51,0,0,0,38.7,22.22Z"/><path class="cls-11" d="M37.92,23.27c0,.12.17.26.45.26s.42-.14.45-.26h-.9Z"/><path class="cls-2" d="M38.51,23.37h-.28l-.27,0a.59.59,0,0,1,0-.08h.9a.2.2,0,0,1,0,.08Z"/><path class="cls-6" d="M38.53,23.59a.29.29,0,0,1-.16,0,.26.26,0,0,1-.15,0h.31Z"/><path class="cls-3" d="M37.65,20.59a4.07,4.07,0,0,0-.28,1.25.81.81,0,0,1-.28-.39,5.12,5.12,0,0,0,.1.74,1.17,1.17,0,0,1-.38-.8,1.43,1.43,0,0,1,.84-1.51,1.71,1.71,0,0,1,2.14.67,2.19,2.19,0,0,1-.17,2c0-.22.15-.54.09-.68a.91.91,0,0,1-.16.38,1.19,1.19,0,0,0-.15-.77,5.12,5.12,0,0,1-.51-.36,1.6,1.6,0,0,0-.07.45C38.47,21.05,37.92,21.1,37.65,20.59Z"/><path class="cls-6" d="M38.25,22.66l0,.07a.16.16,0,0,0,0,.08s0,0,0,0l0,0,.07,0a.13.13,0,0,0,.08,0h.08l.08,0s.06,0,.07-.06,0,0,0,.05l0,0-.09.05a.17.17,0,0,1-.1,0l-.1,0-.08-.06,0,0a0,0,0,0,1,0-.05.11.11,0,0,1,0-.09Z"/><polygon class="cls-4" points="38.37 25.61 38.7 25.27 38.93 25.61 38.37 25.61"/><polygon class="cls-4" points="38.37 25.61 38.04 25.27 37.81 25.61 38.37 25.61"/><path class="cls-12" d="M40.9,48.59c0,.1-.28.16-.49.21a1.44,1.44,0,0,1-.87-.14c-.16-.13-.35-.3-.49-.31a1.16,1.16,0,0,1-.48-.21c0-.07-.09-.48,0-.63.08.14.22.17.26.12a3.19,3.19,0,0,1,.2-.32.46.46,0,0,1,.35-.1.41.41,0,0,1,.26.21,2.9,2.9,0,0,0,.48.55l.72.59S40.9,48.58,40.9,48.59Z"/><path class="cls-9" d="M40.91,48.85a.63.63,0,0,1-.47.24,2.18,2.18,0,0,1-.84-.1,3.49,3.49,0,0,0-.54-.35,1.14,1.14,0,0,1-.5-.17.38.38,0,0,1,0-.33,1.16,1.16,0,0,0,.48.21c.14,0,.33.18.49.31a1.44,1.44,0,0,0,.87.14c.21,0,.44-.11.49-.21A.33.33,0,0,1,40.91,48.85Z"/><path class="cls-12" d="M35.85,48.59c0,.1.28.16.49.21a1.44,1.44,0,0,0,.87-.14c.17-.13.35-.3.49-.31a1.1,1.1,0,0,0,.48-.21c0-.07.09-.48,0-.63-.07.14-.22.17-.26.12s-.13-.26-.19-.32a.48.48,0,0,0-.35-.1.4.4,0,0,0-.27.21,2.9,2.9,0,0,1-.48.55l-.72.59S35.85,48.58,35.85,48.59Z"/><path class="cls-9" d="M35.84,48.85a.63.63,0,0,0,.47.24,2.18,2.18,0,0,0,.84-.1,4,4,0,0,1,.54-.35,1.14,1.14,0,0,0,.5-.17.35.35,0,0,0,0-.33,1.1,1.1,0,0,1-.48.21c-.14,0-.32.18-.49.31a1.44,1.44,0,0,1-.87.14c-.21,0-.44-.11-.49-.21A.33.33,0,0,0,35.84,48.85Z"/><path class="cls-8" d="M40.79,33.18c-1.11.14-2.42.18-2.42.18s-1.31,0-2.41-.18A49.69,49.69,0,0,0,36.34,40c.06,1,.27,6.34.29,7.68a5.25,5.25,0,0,0,1.67.08l.07-11.24.07,11.24a5.32,5.32,0,0,0,1.68-.08c0-1.34.22-6.63.29-7.68A53.27,53.27,0,0,0,40.79,33.18Z"/><path class="cls-13" d="M40.63,28a21.38,21.38,0,0,0,.6-2.7,10.92,10.92,0,0,0-1.72-.66,1.67,1.67,0,0,1-1.14,1,1.67,1.67,0,0,1-1.14-1,11.74,11.74,0,0,0-1.72.66,19.85,19.85,0,0,0,.61,2.7c0,1.18-.12,4.88-.16,5.21.47.45,4.35.45,4.83,0C40.74,32.85,40.59,29.15,40.63,28Z"/><path class="cls-14" d="M40.63,28c-.26,2.21-.11,4.51-.22,4.82-.19.53-3.23.74-4.33.47.8.36,4.26.34,4.71-.08C40.74,32.85,40.59,29.15,40.63,28Z"/><path class="cls-15" d="M38.37,25.61s.18-.19.28-.19.28.49.28.49a5.83,5.83,0,0,0,.73-1.26,3.47,3.47,0,0,0-.59-.68c.18.26.23.39.15.49Z"/><path class="cls-15" d="M38.37,25.61s-.18-.19-.27-.19-.29.49-.29.49a5.83,5.83,0,0,1-.73-1.26,3.84,3.84,0,0,1,.6-.68c-.18.26-.23.39-.16.49S38.05,25.16,38.37,25.61Z"/><path class="cls-5" d="M41.18,25.27c.45.43.67,2.18.72,2.94s0,1.65,0,2A9,9,0,0,1,42,32c0,.7-.28,1.93-.28,2.29a8.7,8.7,0,0,0,0,1.62,1.3,1.3,0,0,1,0,.83s-.82.67-.93.72-.23-.17,0-.44a.38.38,0,0,0-.11-.66c-.06,0-.06.3,0,.46s-.12.18-.17,0a.94.94,0,0,1,0-.74,5.3,5.3,0,0,0,.38-.75,19.11,19.11,0,0,0,0-2.42,15.4,15.4,0,0,1,.07-2.24c.06-.33-.27-1.12-.32-2.75a5.07,5.07,0,0,1,.1-1.46C40.85,25.93,41,25.34,41.18,25.27Z"/><path class="cls-13" d="M42.13,32c0,.33-.1.78-.16,1.21s-.12.89-.12,1.07,0,.27,0,.44a6.82,6.82,0,0,0,0,.9,2,2,0,0,1-1-.4c0-.38,0-1.69,0-2.29a15.74,15.74,0,0,1,.07-2.26,2.17,2.17,0,0,0-.08-.62,13.16,13.16,0,0,1-.25-2.12h0a5.6,5.6,0,0,1,.11-1.47v0c.16-.71.26-1.11.49-1.19l.12,0c.56.55.72,2.83.73,2.93,0,.45,0,.95,0,1.35a4.59,4.59,0,0,0,0,.65,3,3,0,0,0,0,.36A6.52,6.52,0,0,1,42.13,32Z"/><path class="cls-5" d="M35.56,25.27c-.44.43-.66,2.18-.72,2.94s0,1.65,0,2A9.85,9.85,0,0,0,34.7,32c.06.7.28,1.93.28,2.29a9.6,9.6,0,0,1,0,1.62,1.3,1.3,0,0,0,0,.83s.82.67.93.72.23-.17,0-.44a.38.38,0,0,1,.12-.66c.06,0,0,.3,0,.46s.11.18.17,0a.94.94,0,0,0,0-.74,4.56,4.56,0,0,1-.39-.75,23.88,23.88,0,0,1,0-2.42,15.4,15.4,0,0,0-.07-2.24c0-.33.28-1.12.33-2.75A5.11,5.11,0,0,0,36,26.48C35.9,25.93,35.77,25.34,35.56,25.27Z"/><path class="cls-13" d="M34.62,32c0,.33.09.78.15,1.21a10.42,10.42,0,0,1,.13,1.07c0,.12,0,.27,0,.44s0,.62,0,.9a1.9,1.9,0,0,0,1-.4c0-.38,0-1.69,0-2.29a13.28,13.28,0,0,0-.07-2.26,2.17,2.17,0,0,1,.08-.62,12.09,12.09,0,0,0,.25-2.12h0a4.86,4.86,0,0,0-.11-1.47v0c-.16-.71-.26-1.11-.5-1.19l-.11,0c-.57.55-.72,2.83-.73,2.93,0,.45,0,.95,0,1.35s0,.51,0,.65,0,.22,0,.36A7.23,7.23,0,0,0,34.62,32Z"/><text class="cls-16" transform="translate(87.01 39.15)">10+</text></g></g></svg>