<svg xmlns="http://www.w3.org/2000/svg" viewBox="0 0 142.52 68.15"><defs><style>.cls-1{fill:#fff1e1;}.cls-12,.cls-2{fill:#fff;}.cls-3{fill:#fab47f;}.cls-4{fill:#e5e5e4;}.cls-5{fill:#588bc1;}.cls-16,.cls-6{fill:#415da7;}.cls-12,.cls-6{opacity:0.5;}.cls-7{fill:#81a9d9;}.cls-8{fill:#307aba;opacity:0.4;}.cls-9{opacity:0.2;}.cls-10{fill:#261214;}.cls-11{fill:#601110;}.cls-13{fill:#ef8e45;}.cls-14{fill:#eb8840;}.cls-15{fill:#6d2719;}.cls-17{font-size:19.4px;fill:#f29a33;font-family:MyriadPro-Bold, Myriad Pro;font-weight:700;}</style></defs><title>3</title><g id="Layer_2" data-name="Layer 2"><g id="Layer_1-2" data-name="Layer 1"><rect class="cls-1" width="142.52" height="68.15" rx="15" ry="15"/><circle class="cls-2" cx="38.37" cy="34.08" r="24.18"/><path class="cls-3" d="M39.24,47.82a11,11,0,0,1-.07-4.48,11.87,11.87,0,0,0-.45-1.49,7.62,7.62,0,0,1-.17-1.6,1.35,1.35,0,0,0-.18-.67,1.41,1.41,0,0,0-.17.67,7,7,0,0,1-.18,1.6,13.55,13.55,0,0,0-.44,1.49,11,11,0,0,1-.07,4.48c-.28.33-2.11.23-2.21-.09a26.77,26.77,0,0,1-.11-5c-.07-.5-.15-1.07-.37-2.78a13.05,13.05,0,0,1,.37-3.75c0-.56.08-2.15.13-3s.32-1,.34-1.87-1-2-1.34-2.62a6.94,6.94,0,0,1,2.21-1.28.54.54,0,0,0,.39-.43,1.1,1.1,0,0,0,0-.18,5.23,5.23,0,0,0,1.43.24,5.29,5.29,0,0,0,1.44-.24,1.1,1.1,0,0,0,0,.18.52.52,0,0,0,.39.43,6.83,6.83,0,0,1,2.21,1.28c-.35.61-1.36,1.76-1.34,2.62s.3,1,.34,1.87.15,2.43.13,3A13.05,13.05,0,0,1,41.93,40c-.22,1.71-.3,2.28-.37,2.78a26.77,26.77,0,0,1-.11,5C41.74,47.89,39.37,48.13,39.24,47.82Z"/><path class="cls-4" d="M37.78,45.24a11,11,0,0,1-.27,2.58c-.28.33-2.11.23-2.22-.09A25.55,25.55,0,0,1,35.12,45,3.41,3.41,0,0,0,37.78,45.24Z"/><path class="cls-4" d="M39.24,47.82A11,11,0,0,1,39,45.24,3.41,3.41,0,0,0,41.63,45a22.43,22.43,0,0,1-.18,2.75C41.74,47.88,39.36,48.13,39.24,47.82Z"/><path class="cls-5" d="M42.1,40C42,41.27,42,42.78,42,42.94a12,12,0,0,1-3.2.38c-.07-.31-.45-2.72-.45-3.07,0,.36-.38,2.77-.45,3.07a9.11,9.11,0,0,1-3.33-.59A14.63,14.63,0,0,0,34.65,40a7.71,7.71,0,0,1,.14-2.58c1.34.5,5,1.66,7.23.32A9.49,9.49,0,0,1,42.1,40Z"/><path class="cls-6" d="M37.88,41.45c-.18.65-.23,1.53-.3,1.87h.34c0-.16.33-2.2.44-2.94C38.2,40.38,37.84,41.6,37.88,41.45Z"/><path class="cls-6" d="M42,37.76l-.32.16a10.79,10.79,0,0,1,.06,2.1c-.07,1.25-.13,2-.49,2.42a4.26,4.26,0,0,1-2.45.88h0a12,12,0,0,0,3.2-.38c0-.16,0-1.67.08-2.92A9.49,9.49,0,0,0,42,37.76Z"/><path class="cls-7" d="M42.63,28.75l-.05.1a6.21,6.21,0,0,1-.38.57,4.27,4.27,0,0,0-.94,2,3.19,3.19,0,0,0,.16.92,3.58,3.58,0,0,1,.19.94c0,.2,0,.45,0,.71,0,.83.43,3.68.48,4-2.27,1.34-6.19.15-7.54-.34,0-.17.47-2.79.51-3.61,0-.27,0-.52,0-.72a4.12,4.12,0,0,1,.18-.94,2.84,2.84,0,0,0,.17-.92,4.27,4.27,0,0,0-.94-2,6.21,6.21,0,0,1-.38-.57l-.05-.1.06-.09c.39-.56,2-1.06,2.35-1.18a1.34,1.34,0,0,0,.68.46,4.18,4.18,0,0,0,1.18.13c1,0,1.49-.16,1.83-.59.35.14,2,.64,2.35,1.18Z"/><path class="cls-8" d="M41.49,37.63c-.92,1-5.3.42-6.89-.11v0c1.35.49,5.27,1.68,7.54.34-.05-.28-.44-3.13-.48-4,0-.26,0-.51,0-.71C41.09,34.51,42,37.13,41.49,37.63Z"/><path class="cls-3" d="M34.32,28.76c-.37.33-.5,1.87-.59,2.62a12.22,12.22,0,0,1-.15,1.76,17.6,17.6,0,0,0-.45,3.66c.08.7-.39,1.2-.18,1.63s1.13,1.11,1.52.69-.13-.49-.28-.73.37-.18.42,0,.43.06.28-.21a3.57,3.57,0,0,1-.44-1.09,5,5,0,0,1,.27-1.65,9.34,9.34,0,0,0,.34-1.93,9,9,0,0,1,.59-1.95,2.93,2.93,0,0,0-.27-2A2.12,2.12,0,0,0,34.32,28.76Z"/><path class="cls-7" d="M35.8,31.64a11.24,11.24,0,0,0-.52,1.58,4.9,4.9,0,0,1-1.77-1c0-.25,0-.53.05-.83l0-.25a4.9,4.9,0,0,1,.62-2.48l.07-.07.1,0a2.35,2.35,0,0,1,1.16.9A3.14,3.14,0,0,1,35.8,31.64Z"/><path class="cls-3" d="M42.42,28.76c.37.33.5,1.87.59,2.62a13.89,13.89,0,0,0,.15,1.76,18.25,18.25,0,0,1,.46,3.66c-.09.7.39,1.2.17,1.63s-1.13,1.11-1.52.69.13-.49.28-.73-.37-.18-.42,0-.43.06-.27-.21a3.82,3.82,0,0,0,.43-1.09A5,5,0,0,0,42,35.44a9.34,9.34,0,0,1-.34-1.93,8.48,8.48,0,0,0-.6-1.95,3.05,3.05,0,0,1,.27-2A2.17,2.17,0,0,1,42.42,28.76Z"/><path class="cls-7" d="M40.94,31.64a9.12,9.12,0,0,1,.52,1.58,4.85,4.85,0,0,0,1.78-1c0-.25,0-.52-.06-.82l0-.25a5.13,5.13,0,0,0-.62-2.49l-.08-.07-.09,0a2.27,2.27,0,0,0-1.16.9A3.1,3.1,0,0,0,40.94,31.64Z"/><path class="cls-9" d="M39.83,27.05a2.49,2.49,0,0,1-2.91,0,1.1,1.1,0,0,0,0-.18,5.23,5.23,0,0,0,1.43.24,5.29,5.29,0,0,0,1.44-.24A1.1,1.1,0,0,0,39.83,27.05Z"/><path class="cls-3" d="M40.24,21a3.86,3.86,0,0,0-3.73,0c-.78.46-.88,1.84-.85,2.1a10.88,10.88,0,0,0,.53,3.06,2.94,2.94,0,0,0,2.18,1.13,3,3,0,0,0,2.2-1.13,11.22,11.22,0,0,0,.52-3.06C41.12,22.86,41,21.48,40.24,21Z"/><path class="cls-10" d="M39.15,22.94a1,1,0,0,1,1,.32,0,0,0,0,1,0,.07.09.09,0,0,1-.07,0,.73.73,0,0,0-.42-.21.75.75,0,0,0-.45.06.13.13,0,0,1-.11-.24Z"/><path class="cls-2" d="M40.14,24.12a.67.67,0,0,0-.58-.52.56.56,0,0,0-.6.51.76.76,0,0,0,.6.3A.73.73,0,0,0,40.14,24.12Z"/><path class="cls-11" d="M39.88,23.9a.36.36,0,0,1-.3.42.37.37,0,0,1-.42-.31.37.37,0,0,1,.31-.41A.35.35,0,0,1,39.88,23.9Z"/><path d="M39.72,23.93a.19.19,0,0,1-.17.22.18.18,0,0,1-.22-.16.2.2,0,0,1,.16-.23A.2.2,0,0,1,39.72,23.93Z"/><path class="cls-12" d="M39.76,23.8a.1.1,0,0,1-.09.12.11.11,0,0,1-.13-.09.1.1,0,0,1,.09-.12A.11.11,0,0,1,39.76,23.8Z"/><path d="M40.14,24.12a1.79,1.79,0,0,0-.22-.3.75.75,0,0,0-.31-.15.53.53,0,0,0-.33,0,.6.6,0,0,0-.27.23.47.47,0,0,1,.22-.32.54.54,0,0,1,.41-.07.56.56,0,0,1,.35.21A.77.77,0,0,1,40.14,24.12Z"/><path class="cls-10" d="M37.6,22.94a1,1,0,0,0-1,.32,0,0,0,0,0,0,.07.06.06,0,0,0,.06,0,.73.73,0,0,1,.43-.21.78.78,0,0,1,.45.06.14.14,0,0,0,.17-.07.15.15,0,0,0-.07-.17Z"/><path class="cls-2" d="M36.62,24.12a.65.65,0,0,1,.58-.52.56.56,0,0,1,.59.51.75.75,0,0,1-.6.3A.7.7,0,0,1,36.62,24.12Z"/><path class="cls-11" d="M36.87,23.9a.36.36,0,1,0,.72.11.37.37,0,0,0-.31-.41A.36.36,0,0,0,36.87,23.9Z"/><path d="M37,23.93a.2.2,0,0,0,.4.06.21.21,0,0,0-.17-.23A.2.2,0,0,0,37,23.93Z"/><path class="cls-12" d="M37,23.8a.11.11,0,0,0,.1.12.11.11,0,1,0,0-.21A.11.11,0,0,0,37,23.8Z"/><path d="M36.62,24.12a1.11,1.11,0,0,1,.22-.3.71.71,0,0,1,.3-.15.53.53,0,0,1,.33,0,.6.6,0,0,1,.27.23.47.47,0,0,0-.22-.32.52.52,0,0,0-.4-.07.53.53,0,0,0-.35.21A.61.61,0,0,0,36.62,24.12Z"/><path class="cls-13" d="M39.25,25.76a.89.89,0,0,1-1.75,0l.6,0h.55Z"/><path class="cls-2" d="M38.1,26l.27,0h0l.27,0,.52,0a.79.79,0,0,0,.08-.23l-.6,0H38.1l-.6,0a1.27,1.27,0,0,0,.08.23Z"/><path class="cls-14" d="M38,25.18c0-.05.31,0,.42,0s.36-.05.41,0-.26.17-.41.17a.59.59,0,0,1-.23,0C38.08,25.28,38,25.26,38,25.18Z"/><path class="cls-3" d="M35.85,23.6c-.06-.14-.3-.31-.44-.15a1.21,1.21,0,0,0-.09,1.1c.22.45.44.5.55.41A5.54,5.54,0,0,0,35.85,23.6Z"/><path class="cls-14" d="M35.49,23.87a.14.14,0,0,1,.17-.11.23.23,0,0,1,.14.18.34.34,0,0,1,0,.26.37.37,0,0,1-.17.14v0a.47.47,0,0,0,0,.16.54.54,0,0,0,.09.15.43.43,0,0,1-.11-.12.39.39,0,0,1-.06-.19v0h0a.3.3,0,0,0,.15-.12.27.27,0,0,0,0-.2.23.23,0,0,0-.1-.16A.12.12,0,0,0,35.49,23.87Z"/><path class="cls-3" d="M40.9,23.6c.06-.14.3-.31.44-.15a1.21,1.21,0,0,1,.09,1.1c-.22.45-.44.5-.55.41A5.54,5.54,0,0,1,40.9,23.6Z"/><path class="cls-14" d="M41.26,23.87a.14.14,0,0,0-.17-.11.23.23,0,0,0-.14.18.34.34,0,0,0,0,.26.37.37,0,0,0,.17.14v0a.47.47,0,0,1,0,.16.54.54,0,0,1-.09.15.43.43,0,0,0,.11-.12.39.39,0,0,0,.06-.19v0h0a.3.3,0,0,1-.15-.12.27.27,0,0,1,0-.2.23.23,0,0,1,.1-.16A.12.12,0,0,1,41.26,23.87Z"/><path class="cls-15" d="M36.09,21c0-.89.78-1.67,2.36-1.65.83,0,1,.29,1.61.35a3,3,0,0,0,1-.11,3.32,3.32,0,0,1-.71.57,1.84,1.84,0,0,0,1.18.72,1.91,1.91,0,0,1-.83.17,2,2,0,0,1,.52.58,2.94,2.94,0,0,1-.1,1.8c-.33.09-.31.71-.37,1a9,9,0,0,1-.23-1.76c-.14.05-.21.36-.31.51a1.66,1.66,0,0,0-.75-1.5c.18.42.2.54.31.63a5.26,5.26,0,0,1-1.67-.37c.24.32.22.48.38.61-.41-.12-1.43-.82-1.59-.82-.37,0-.77.56-.87.8a4.18,4.18,0,0,0-.09,1.65C35.71,23.59,34.47,22.17,36.09,21Z"/><path class="cls-16" d="M39.23,47.81v.55a2.27,2.27,0,0,0,1.38.46,5.73,5.73,0,0,0,1.68-.23c.23-.16,0-.44-.19-.62a1.8,1.8,0,0,0-.59-.41C41.19,47.51,39.78,47.28,39.23,47.81Z"/><path class="cls-7" d="M42.29,48.59a5.78,5.78,0,0,1-1.68.23,2.27,2.27,0,0,1-1.38-.46v-.14c.12.25.39.14.53.14s.92-.44,1.19-.46A3.62,3.62,0,0,1,42.1,48C42.31,48.16,42.52,48.43,42.29,48.59Z"/><path class="cls-7" d="M40.23,48a.11.11,0,0,1-.07,0,.09.09,0,0,1,0-.12,1.78,1.78,0,0,1,1.57-.25.1.1,0,0,1,0,.11.1.1,0,0,1-.11.06,1.58,1.58,0,0,0-1.39.21Z"/><path class="cls-16" d="M37.53,47.75v.55a2.2,2.2,0,0,1-1.38.46,5.67,5.67,0,0,1-1.67-.23c-.23-.16,0-.43.18-.62a1.8,1.8,0,0,1,.59-.41C35.57,47.46,37,47.22,37.53,47.75Z"/><path class="cls-7" d="M34.48,48.53a5.71,5.71,0,0,0,1.67.23,2.27,2.27,0,0,0,1.38-.46v-.14c-.12.25-.39.14-.53.14s-.92-.43-1.19-.46a3.62,3.62,0,0,0-1.15.07C34.45,48.1,34.25,48.37,34.48,48.53Z"/><path class="cls-7" d="M36.53,48l-.05,0a1.61,1.61,0,0,0-1.4-.21.1.1,0,0,1-.11-.05.1.1,0,0,1,.06-.12,1.75,1.75,0,0,1,1.56.25.08.08,0,0,1,0,.12A.09.09,0,0,1,36.53,48Z"/><path class="cls-5" d="M35.2,33.2a1.5,1.5,0,0,0,.06-.29,2.89,2.89,0,0,0,0-.29c0-.19.05-.39.08-.58s.07-.39.11-.58a4.11,4.11,0,0,1,.17-.57c-.08.39-.13.77-.19,1.16,0,.19-.06.39-.1.58A2.33,2.33,0,0,1,35.2,33.2Z"/><path class="cls-5" d="M41.6,33.18a2.3,2.3,0,0,1-.26-.49c-.08-.18-.14-.35-.2-.53q-.16-.52-.3-1.08c.08.17.14.35.21.53l.18.52.17.53A4.65,4.65,0,0,0,41.6,33.18Z"/><text class="cls-17" transform="translate(91.84 39.15)">3+</text></g></g></svg>