<svg xmlns="http://www.w3.org/2000/svg" viewBox="0 0 142.52 68.15"><defs><style>.cls-1{fill:#fff1e1;}.cls-13,.cls-2,.cls-9{fill:#fff;}.cls-3{fill:#fab47f;}.cls-4{fill:#e5e5e4;}.cls-5,.cls-9{opacity:0.2;}.cls-6{fill:#eb8840;}.cls-7{fill:#415da7;}.cls-8{fill:#81a9d9;}.cls-10{fill:#261214;}.cls-11{fill:#54a3da;}.cls-12{fill:#601110;}.cls-13{opacity:0.3;}.cls-14{font-size:19.4px;fill:#f29a33;font-family:MyriadPro-Bold, Myriad Pro;font-weight:700;}</style></defs><title>7</title><g id="Layer_2" data-name="Layer 2"><g id="Layer_1-2" data-name="Layer 1"><rect class="cls-1" width="142.52" height="68.15" rx="15" ry="15"/><circle class="cls-2" cx="38.37" cy="34.08" r="24.18"/><path class="cls-3" d="M36.17,33.47a26.32,26.32,0,0,0,0,3.34A23.21,23.21,0,0,0,36.84,40a16.21,16.21,0,0,1,.06,2.64,36.67,36.67,0,0,0,.63,4.65c.33,0,.75,0,1,0,0-.46.13-2.57.1-3.18s-.19-1.64-.16-1.86a11.11,11.11,0,0,0,.11-2.06c-.07-.54.15-4,.15-4.42,0,.45.23,3.88.16,4.42a12.21,12.21,0,0,0,.1,2.06c0,.22-.12,1.26-.15,1.86s.12,2.72.1,3.18c.26,0,.68,0,1,0a34.94,34.94,0,0,0,.64-4.65,17.49,17.49,0,0,1,0-2.64,21.53,21.53,0,0,0,.68-3.16,26.32,26.32,0,0,0,0-3.34c0-.5-.11-1.53-.17-2a22.82,22.82,0,0,1,0-3.08,5.24,5.24,0,0,1,.67-2.32c-.31-.5-1.59-.92-1.88-1.05a.84.84,0,0,1-.35-.67.9.9,0,0,1,0-.37,1.38,1.38,0,0,1-.91.19,1.36,1.36,0,0,1-.9-.19,1.11,1.11,0,0,1,0,.37.8.8,0,0,1-.34.67c-.29.13-1.57.55-1.88,1.05a5.24,5.24,0,0,1,.67,2.32,24.61,24.61,0,0,1,0,3.08C36.28,31.94,36.22,33,36.17,33.47Z"/><path class="cls-4" d="M38.54,47.26c-.26,0-.68,0-1,0-.11-.27-.44-2.56-.58-3.83,0-.08,0-.15,0-.22a3.58,3.58,0,0,1,0-.41,1.58,1.58,0,0,1,0-.19v0c0-.12,0-.3,0-.52a3.87,3.87,0,0,0,1.6-.12c0,.13,0,.22,0,.27s0,.14,0,.26,0,.13,0,.21,0,.25,0,.39l0,.21c0,.28.06.57.07.79C38.67,44.69,38.52,46.8,38.54,47.26Z"/><path class="cls-4" d="M40.59,42.8c0,.1,0,.25,0,.42s0,.13,0,.21A34.48,34.48,0,0,1,40,47.26c-.32,0-.74,0-1,0,0-.46-.14-2.57-.1-3.18,0-.22,0-.51.07-.79a1.49,1.49,0,0,0,0-.21c0-.14,0-.27,0-.39a1.83,1.83,0,0,0,0-.21,1.08,1.08,0,0,0,0-.26s0-.14,0-.27a3.86,3.86,0,0,0,1.6.12c0,.22,0,.4,0,.52v0A1.16,1.16,0,0,1,40.59,42.8Z"/><path class="cls-3" d="M41.65,25.93c.32.18.55,1.13.66,1.91s.41,2.66.41,3.42-.24,3-.27,3.22A7.57,7.57,0,0,1,42.6,36a2.5,2.5,0,0,1-.53.86c-.14.07-.57.07-.66.11a.14.14,0,0,1,.05-.24c.11,0,.27,0,.32-.08A4.3,4.3,0,0,0,42,36c0-.07-.18-.22-.28-.11s0,.52-.11.56-.2,0-.23-.17a2.77,2.77,0,0,1,.11-1,6.45,6.45,0,0,1,.2-.67c0-.21-.17-3-.25-3.8s-.52-1.69-.5-2.2A6.27,6.27,0,0,1,41.65,25.93Z"/><path class="cls-5" d="M37.87,24.39a1.74,1.74,0,0,0,.87.22,1.69,1.69,0,0,0,.87-.22.9.9,0,0,1,0-.37,1.38,1.38,0,0,1-.91.19,1.36,1.36,0,0,1-.9-.19A1.11,1.11,0,0,1,37.87,24.39Z"/><path class="cls-3" d="M37.07,20.46a2,2,0,0,1,3.35,0,3.77,3.77,0,0,1,0,1.87c-.14.63-.4,1.71-.78,1.91a1.86,1.86,0,0,1-1.79,0c-.38-.2-.64-1.28-.78-1.91A3.66,3.66,0,0,1,37.07,20.46Z"/><path class="cls-3" d="M37.09,22c-.07-.12-.19-.3-.26-.29s-.18.37-.13.59a.87.87,0,0,0,.26.44c.07.07.23.17.25.12A2.26,2.26,0,0,0,37.09,22Z"/><path class="cls-6" d="M36.88,22.25a.27.27,0,0,1-.09-.12.14.14,0,0,1,0-.07.11.11,0,0,1,0-.08l0-.07a.1.1,0,0,1,.09,0A.25.25,0,0,1,37,22a.2.2,0,0,1,0,.15c0,.06,0,.1,0,.15a.13.13,0,0,0,0,.06.09.09,0,0,0,0,.06.87.87,0,0,0,.09.11.52.52,0,0,1-.11-.1.1.1,0,0,1-.05-.06.19.19,0,0,1,0-.08.89.89,0,0,0,0-.14A.16.16,0,0,0,37,22,.26.26,0,0,0,36.9,22s-.07,0-.09.05a.13.13,0,0,0,0,.06s0,0,0,.07A.75.75,0,0,0,36.88,22.25Z"/><path class="cls-3" d="M40.39,22c.08-.12.2-.3.27-.29s.18.37.12.59a.8.8,0,0,1-.25.44c-.07.07-.24.17-.26.12A2.47,2.47,0,0,1,40.39,22Z"/><path class="cls-6" d="M40.61,22.25a.75.75,0,0,0,.07-.12s0-.05,0-.07a.14.14,0,0,0,0-.06s-.05-.07-.08-.05a.43.43,0,0,0-.1.09.31.31,0,0,0,0,.13s0,.09,0,.14a.19.19,0,0,1,0,.08.1.1,0,0,1,0,.06.52.52,0,0,1-.11.1l.09-.11s0,0,0-.06a.13.13,0,0,0,0-.06c0-.05,0-.09-.05-.15a.26.26,0,0,1,0-.15.22.22,0,0,1,.12-.11s.06,0,.09,0l.05.07a.11.11,0,0,1,0,.08.14.14,0,0,1,0,.07A.62.62,0,0,1,40.61,22.25Z"/><path class="cls-7" d="M41.47,37.07c0,.11,0,.23,0,.34s0,.08,0,.12,0,.22,0,.33c0,.49,0,1-.07,1.4,0,.07,0,.14,0,.2v.06a1.49,1.49,0,0,0,0,.21c0,.13,0,.26,0,.38a.2.2,0,0,1-.08,0l0,0h0a3.06,3.06,0,0,1-2.29-.1,34.08,34.08,0,0,0-.1-3.41v0h0c0,.12-.07,1.09-.1,2h0v.23a9,9,0,0,0,0,1.2,3,3,0,0,1-2.32.09l-.06,0-.07,0c-.14-1.25-.2-3.15-.2-4.63,0-.25,0-.5,0-.73v-.1c0-.27,0-.52,0-.72v-.22a.41.41,0,0,1,0-.11h0v-.07h5.35a.43.43,0,0,1,0,0,.62.62,0,0,0,0,.13.41.41,0,0,0,0,.11v.12s0,.06,0,.1v.11c0,.15,0,.31,0,.48s0,.24,0,.37v.32C41.49,35.86,41.48,36.46,41.47,37.07Z"/><path class="cls-8" d="M41.42,33.53h-.31A52.6,52.6,0,0,1,41,40.24a1.57,1.57,0,0,0,.29-.13A47.58,47.58,0,0,0,41.42,33.53Z"/><path class="cls-8" d="M36.49,40.24l-.16-.06-.06,0-.07,0c-.14-1.25-.2-3.15-.2-4.63,0-.25,0-.5,0-.73v-.1c0-.27,0-.52,0-.72v-.22a.41.41,0,0,1,0-.11h0v-.07h.31c0,.22,0,.58-.05,1,0,.27,0,.58,0,.91C36.31,37,36.36,38.89,36.49,40.24Z"/><path class="cls-6" d="M38.9,22.8l.1.07a.16.16,0,0,1,.07.12.13.13,0,0,1,0,.09l0,.05a.41.41,0,0,1-.11.07.28.28,0,0,1-.13,0,.32.32,0,0,1-.14,0l-.1-.07s0,0-.05-.05a.14.14,0,0,1,0-.06.18.18,0,0,0,.09.06l.11,0a.18.18,0,0,0,.1,0l.1,0,.09-.06,0,0,0,0a.23.23,0,0,0,0-.09Z"/><path class="cls-9" d="M38.49,22.94c0,.06.08.11.17.11s.16-.05.16-.11-.07-.1-.16-.1S38.49,22.88,38.49,22.94Z"/><path class="cls-10" d="M35.84,48.62c0,.11.29.26.55.29a2.63,2.63,0,0,0,1-.12,5.14,5.14,0,0,1,.64-.41,1.48,1.48,0,0,0,.59-.2.45.45,0,0,0,0-.39A1.24,1.24,0,0,1,38,48a1.73,1.73,0,0,0-.58.36,1.67,1.67,0,0,1-1,.16c-.25-.05-.52-.12-.58-.24A.44.44,0,0,0,35.84,48.62Z"/><path class="cls-7" d="M35.85,48.32c.06.12.33.19.58.24a1.67,1.67,0,0,0,1-.16A1.73,1.73,0,0,1,38,48a1.24,1.24,0,0,0,.56-.25c0-.08.11-.56,0-.73-.09.16-.26.19-.31.14a4.29,4.29,0,0,0-.23-.38.57.57,0,0,0-.41-.12.5.5,0,0,0-.31.25,3.19,3.19,0,0,1-.56.65l-.85.69Z"/><path class="cls-4" d="M37.56,47.69a.05.05,0,0,1-.05,0c0-.11,0-.16-.12-.19l-.4-.08a.05.05,0,0,1-.05,0,.06.06,0,0,1,.06,0,2.45,2.45,0,0,1,.42.08.28.28,0,0,1,.2.29A.06.06,0,0,1,37.56,47.69Z"/><path class="cls-4" d="M37.37,47.89a.06.06,0,0,1-.06,0c0-.11,0-.17-.12-.19a2.5,2.5,0,0,0-.4-.08,0,0,0,0,1,0-.06s0,0,0,0a2.72,2.72,0,0,1,.43.08.28.28,0,0,1,.19.29A.05.05,0,0,1,37.37,47.89Z"/><path class="cls-4" d="M37.13,48.05a.06.06,0,0,1-.05-.06A.18.18,0,0,0,37,47.8c-.1,0-.4-.07-.4-.07a.06.06,0,0,1-.05-.06s0-.05.06,0a2.64,2.64,0,0,1,.42.08.26.26,0,0,1,.19.28A.06.06,0,0,1,37.13,48.05Z"/><path class="cls-10" d="M41.65,48.62a.77.77,0,0,1-.55.29,2.72,2.72,0,0,1-1-.12,4.44,4.44,0,0,0-.63-.41,1.48,1.48,0,0,1-.59-.2.45.45,0,0,1,0-.39,1.2,1.2,0,0,0,.56.25,1.73,1.73,0,0,1,.58.36,1.65,1.65,0,0,0,1,.16c.24-.05.52-.12.58-.24A.44.44,0,0,1,41.65,48.62Z"/><path class="cls-7" d="M41.64,48.32c-.06.12-.34.19-.58.24a1.65,1.65,0,0,1-1-.16,1.73,1.73,0,0,0-.58-.36,1.2,1.2,0,0,1-.56-.25c0-.08-.11-.56,0-.73.09.16.26.19.31.14a4.29,4.29,0,0,1,.23-.38.56.56,0,0,1,.41-.12.46.46,0,0,1,.3.25,3.54,3.54,0,0,0,.56.65c.18.13.78.63.85.69Z"/><path class="cls-4" d="M39.92,47.69a0,0,0,0,1-.05,0,.28.28,0,0,1,.19-.29,2.86,2.86,0,0,1,.42-.08.06.06,0,0,1,.06,0s0,0,0,0a4,4,0,0,0-.4.08.17.17,0,0,0-.13.19A0,0,0,0,1,39.92,47.69Z"/><path class="cls-4" d="M40.12,47.89a0,0,0,0,1,0,0,.27.27,0,0,1,.19-.29,2.86,2.86,0,0,1,.42-.08,0,0,0,0,1,.06,0s0,.06,0,.06a2.57,2.57,0,0,0-.41.08c-.08,0-.12.08-.12.19A0,0,0,0,1,40.12,47.89Z"/><path class="cls-4" d="M40.35,48.05A.06.06,0,0,1,40.3,48a.27.27,0,0,1,.2-.28,2.45,2.45,0,0,1,.42-.08s0,0,0,0a0,0,0,0,1,0,.06,3.8,3.8,0,0,0-.4.07.17.17,0,0,0-.12.19A.06.06,0,0,1,40.35,48.05Z"/><path class="cls-7" d="M41.62,25.88c.89.56.92,3.07,1,3.74a1.51,1.51,0,0,1-1.33.65c-.08-.27-.21-1.06-.34-1.53S40.91,26.06,41.62,25.88Z"/><path class="cls-5" d="M41.48,34.9c-1.31,1-4.87-.22-5.45-.28,0-.1,0-.51,0-1.07h5.36C41.45,33.8,41.47,34.29,41.48,34.9Z"/><path class="cls-5" d="M41.48,35.32V35c0-.13,0-.26,0-.37s-.2,0-.2.16,0,.21,0,.32c0,.54,0,1.14,0,1.75,0,.12,0,.23,0,.34a.49.49,0,0,1,0,.12c0,.11,0,.22,0,.33A15.33,15.33,0,0,1,41,39.74c-.39.64-2.13.31-2.14.35a3.06,3.06,0,0,0,2.29.1h0l0,0a.2.2,0,0,0,.08,0c0-.12,0-.25,0-.38a1.49,1.49,0,0,1,0-.21v-.06c0-.06,0-.13,0-.2,0-.44.05-.91.07-1.4,0-.11,0-.22,0-.33s0-.08,0-.12,0-.23,0-.34C41.48,36.46,41.49,35.86,41.48,35.32Z"/><path class="cls-11" d="M41.12,29.37c.06.79.43,4.83.43,5.19a.27.27,0,0,1-.08.07,2.2,2.2,0,0,1-.3.19,6.56,6.56,0,0,1-3.45,0c-.57-.1-1.07-.22-1.39-.29l-.3-.06c0-.09,0-.43,0-.91h0c0-.61,0-1.44.08-2.26,0-1.22.09-2.4.12-2.76a2.36,2.36,0,0,1-.11-.68c0-.4,0-.85-.06-1.27a2.18,2.18,0,0,0-.23-.75,5.89,5.89,0,0,1,1.67-.82,1.66,1.66,0,0,0,2.43,0,5.71,5.71,0,0,1,1.66.82A7.77,7.77,0,0,0,41.12,29.37Z"/><path class="cls-5" d="M41,34.41c-.61.73-2.38.45-3.53.24-.57-.1-1.07-.22-1.39-.29l-.08,0a1.31,1.31,0,0,0,0,.17l.3.06c.32.07.82.19,1.39.29a6.56,6.56,0,0,0,3.45,0,2.2,2.2,0,0,0,.3-.19.27.27,0,0,0,.08-.07c0-.36-.37-4.4-.43-5.19C40.93,31,41.44,33.93,41,34.41Z"/><path class="cls-7" d="M37.53,25.47a1.64,1.64,0,0,0,2.43,0c.26.11,1.58.32,1.44,1.49,0-.11.18-1,.22-1.08A5.71,5.71,0,0,0,40,25.06a1.66,1.66,0,0,1-2.43,0,5.89,5.89,0,0,0-1.67.82c0,.09.26.7.3.8C36.32,25.59,37.27,25.58,37.53,25.47Z"/><path class="cls-2" d="M39.82,22.41l-.14,0a.89.89,0,0,0-.23,0,.91.91,0,0,0-.27,0,.38.38,0,0,1,.27-.51h.09a.34.34,0,0,1,.28.2A.44.44,0,0,1,39.82,22.41Z"/><path class="cls-12" d="M39.83,22.13a.26.26,0,0,1-.15.24.89.89,0,0,0-.23,0,.28.28,0,0,1-.15-.24.25.25,0,0,1,.15-.23h.09a.34.34,0,0,1,.28.2S39.83,22.12,39.83,22.13Z"/><path d="M39.75,22.13a.18.18,0,0,1-.19.19.18.18,0,0,1-.18-.19.19.19,0,1,1,.37,0Z"/><path class="cls-13" d="M39.57,22a.1.1,0,0,1-.1.1.1.1,0,0,1,0-.2A.1.1,0,0,1,39.57,22Z"/><path d="M39.85,22.23A.33.33,0,0,0,39.7,22a.34.34,0,0,0-.14-.05.23.23,0,0,0-.14,0,.34.34,0,0,0-.21.18.37.37,0,0,0,0,.29.37.37,0,0,1,0-.31.43.43,0,0,1,.24-.22.37.37,0,0,1,.18,0,.34.34,0,0,1,.15.07.32.32,0,0,1,.1.13A.44.44,0,0,1,39.85,22.23Z"/><path class="cls-10" d="M39.09,21.62s.1,0,.15,0a1.24,1.24,0,0,1,.31-.1.58.58,0,0,1,.36.1.4.4,0,0,0-.41-.24C39.26,21.39,39,21.53,39.09,21.62Z"/><path class="cls-2" d="M38.3,22.41l-.14,0h-.35l-.14,0a.51.51,0,0,1,0-.32.36.36,0,0,1,.29-.2h.13l.05,0h0a.35.35,0,0,1,.16.16A.36.36,0,0,1,38.3,22.41Z"/><path class="cls-12" d="M38.3,22.14a.28.28,0,0,1-.14.24H37.9a.25.25,0,0,1-.13-.22s0,0,0,0a.22.22,0,0,1,.28-.2h0l.05,0h0a.25.25,0,0,1,.16.16A.09.09,0,0,1,38.3,22.14Z"/><path d="M37.85,22.14A.19.19,0,1,0,38,22,.19.19,0,0,0,37.85,22.14Z"/><path class="cls-13" d="M37.83,22.06a.09.09,0,0,0,.09.09.09.09,0,0,0,.1-.09.09.09,0,0,0-.1-.1A.09.09,0,0,0,37.83,22.06Z"/><path d="M37.64,22.23a.3.3,0,0,1,.15-.25.35.35,0,0,1,.13-.05.22.22,0,0,1,.14,0,.35.35,0,0,1,.22.18.41.41,0,0,1,0,.29.31.31,0,0,0,0-.31.38.38,0,0,0-.24-.22.32.32,0,0,0-.17,0,.34.34,0,0,0-.15.07.26.26,0,0,0-.1.13A.3.3,0,0,0,37.64,22.23Z"/><path class="cls-10" d="M38.4,21.62s-.1,0-.16,0a1.06,1.06,0,0,0-.3-.1.58.58,0,0,0-.36.1.39.39,0,0,1,.41-.24C38.23,21.39,38.45,21.53,38.4,21.62Z"/><path class="cls-5" d="M38.49,33.29a1.93,1.93,0,0,1,0,.24A2,2,0,0,1,38,34.59a.46.46,0,0,1-.07.07,2.09,2.09,0,0,1-.22.2,1.52,1.52,0,0,1-.41.24l-.07,0a2,2,0,0,1-.49.13,2.19,2.19,0,0,1-.43.22l-.07,0a.81.81,0,0,1-.25,0c0-.25,0-.5,0-.73v-.1c0-.27,0-.52,0-.72v-.22a.41.41,0,0,1,0-.11h0c0-.61,0-1.44.08-2.26a2.19,2.19,0,0,1,.36,0,2.22,2.22,0,0,1,.45.05,2,2,0,0,1,1.28,1,1.93,1.93,0,0,1,.23.62s0,.07,0,.11h0A1.93,1.93,0,0,1,38.49,33.29Z"/><path class="cls-4" d="M38.32,32.83h0a.52.52,0,0,0,0-.11v0a1.73,1.73,0,0,0-.21-.59,2,2,0,0,0-1.25-.93,1.93,1.93,0,0,0-.42,0,2.34,2.34,0,0,0-.38,0,1.92,1.92,0,0,0-1.53,1.68.17.17,0,0,1,0,.07v.14a1.91,1.91,0,0,0,.42,1.19h0l.07.08a2,2,0,0,0,.59.44l.08,0a1.91,1.91,0,0,0,.76.15,1.87,1.87,0,0,0,.71-.13l.07,0a2,2,0,0,0,.61-.43l.06-.07a1.89,1.89,0,0,0,.47-1.25A1.79,1.79,0,0,0,38.32,32.83Z"/><path class="cls-10" d="M34.68,33.07l0,.08a1.23,1.23,0,0,0,.24.68h0a.24.24,0,0,1,0,.08h0a.78.78,0,0,0,0,.44h0a2,2,0,0,0,.59.44.77.77,0,0,0,.39-.12h0a.1.1,0,0,1,.09,0h0a1,1,0,0,0,.34,0,1.11,1.11,0,0,0,.35,0,.15.15,0,0,1,.09,0,.74.74,0,0,0,.36.15,2,2,0,0,0,.61-.43.85.85,0,0,0,0-.47h0s0-.07,0-.1a1.73,1.73,0,0,0,.18-.65.16.16,0,0,1,0-.09.47.47,0,0,0,.19-.37,1.73,1.73,0,0,0-.21-.59.74.74,0,0,0-.32-.22l-.09-.06a1.07,1.07,0,0,0-.57-.43l-.1-.06a.52.52,0,0,0-.17-.16,1.93,1.93,0,0,0-.42,0,2.34,2.34,0,0,0-.38,0,1.12,1.12,0,0,0-.22.16l-.1.06a1.11,1.11,0,0,0-.57.41l-.11.08h0a.93.93,0,0,0-.2.08,2,2,0,0,0-.33.89A.63.63,0,0,0,34.68,33.07Zm1.65-1.53a.2.2,0,0,1,.06.11v.5a.18.18,0,0,1,0,.07,3.37,3.37,0,0,0-.58.41h-.14l-.17,0-.29-.08a.25.25,0,0,1-.08,0h0a1.32,1.32,0,0,1,0-.56l0-.05h0l0-.06h0a1.1,1.1,0,0,1,.62-.4h0A1.41,1.41,0,0,1,36.33,31.54Zm1.33.3h0a.08.08,0,0,1,0,0h0a0,0,0,0,1,0,0h0a1.3,1.3,0,0,1,0,.52.1.1,0,0,1,0,0c-.1,0-.45.11-.52.14h0a.22.22,0,0,1-.11,0,4.21,4.21,0,0,0-.57-.4.36.36,0,0,1,0-.11v-.47a.19.19,0,0,1,.05-.09,1.56,1.56,0,0,1,.49-.15l.17,0A1,1,0,0,1,37.66,31.84Zm-.84,1.56a3.52,3.52,0,0,0,.23-.67h0a.22.22,0,0,1,.08-.09l.48-.12a.14.14,0,0,1,.09,0,1.37,1.37,0,0,1,.35.52h0a.34.34,0,0,1,0,.1,1.73,1.73,0,0,1-.18.68l-.07.07a1.41,1.41,0,0,1-.56.17h0l0-.05c-.06-.1-.25-.41-.34-.53A.19.19,0,0,1,36.82,33.4Zm-1.19.72a.17.17,0,0,1,0-.1,5.55,5.55,0,0,1,.34-.54.09.09,0,0,1,.07,0h.69a.16.16,0,0,1,.11,0c.09.11.25.38.32.49a.38.38,0,0,1,0,.1,1.41,1.41,0,0,1-.35.51.25.25,0,0,1-.09,0s-.17,0-.35,0-.26,0-.31,0A.34.34,0,0,1,36,34.6h0A1.74,1.74,0,0,1,35.63,34.12Zm-.91-1a.51.51,0,0,0,0-.13,1.18,1.18,0,0,1,.34-.5h0a.11.11,0,0,1,.1,0l.49.12a.46.46,0,0,1,.07.07,3,3,0,0,0,.22.66.3.3,0,0,1,0,.13c-.09.13-.25.38-.31.49a.23.23,0,0,1-.1,0,1.5,1.5,0,0,1-.48-.15l-.1-.09A1.16,1.16,0,0,1,34.72,33.15Z"/><path class="cls-13" d="M35.25,32.69a2.5,2.5,0,0,1,1.52-1,2.59,2.59,0,0,1,.48,0h.13c.07,0,0-.1-.2-.2a2.43,2.43,0,0,0-.38-.13,1.75,1.75,0,0,0-.4,0,2,2,0,0,0-.35,0,1.84,1.84,0,0,0-1.14.75,1.75,1.75,0,0,0-.31.83.22.22,0,0,1,0,.08v.12a1.76,1.76,0,0,0,.06.46c.06.25.17.39.18.34v-.08A2.58,2.58,0,0,1,35.25,32.69Z"/><path class="cls-12" d="M37,20.16c0-.41.68-1,1.74-.92s1.48.38,1.79,0c.06.27-.28.47-.14.59a.46.46,0,0,0,.45.06,1.89,1.89,0,0,0-.14.47,7.28,7.28,0,0,1-.17,1.46,1.25,1.25,0,0,1-.29.49,3.2,3.2,0,0,0-.1-1.34,6.74,6.74,0,0,0-1.35-.38,1.54,1.54,0,0,0,.59.38c-.37,0-1.68-.46-1.89-.3a5,5,0,0,0-.39,1.73,3.65,3.65,0,0,1-.3-1.9C36.83,20.18,37,20.16,37,20.16Z"/><path class="cls-6" d="M38.15,23.56a.69.69,0,0,0,.27.41.65.65,0,0,0,.32.1.68.68,0,0,0,.33-.1.74.74,0,0,0,.27-.41A1.8,1.8,0,0,1,38.15,23.56Z"/><path class="cls-2" d="M39.29,23.72a.37.37,0,0,0,.05-.16,1.8,1.8,0,0,1-1.19,0,.37.37,0,0,0,.05.16A2,2,0,0,0,39.29,23.72Z"/><path class="cls-3" d="M35.65,26.11a8.71,8.71,0,0,0-1.58,3.42,17.23,17.23,0,0,0,.29,4.26A4.13,4.13,0,0,0,35.3,35a2.1,2.1,0,0,0,.87.2,1.77,1.77,0,0,0,.58-.3c-.08-.12-.36-.12-.5,0s-.46-.24-.61-.25,0-.21.08-.2.36.18.49.17.21-.15,0-.29-.65-.53-.82-.61a1,1,0,0,0-.35-.11c.05-.28.22-3.39.25-3.6a16.16,16.16,0,0,1,.7-1.63C36,27.89,36.39,26.67,35.65,26.11Z"/><path class="cls-7" d="M35.86,25.88a8.75,8.75,0,0,0-1.84,3,1.9,1.9,0,0,0,1.42.94,7.51,7.51,0,0,0,.85-1.33C36.21,27.24,36.2,26,35.86,25.88Z"/><path class="cls-7" d="M38.54,43.08l0,.21a3.66,3.66,0,0,1-1.17.17,3.19,3.19,0,0,1-.45,0c0-.08,0-.15,0-.22A3.64,3.64,0,0,0,38.54,43.08Z"/><path class="cls-7" d="M40.56,43.22q0,.09,0,.21a3,3,0,0,1-.45,0,3.64,3.64,0,0,1-1.16-.17,1.49,1.49,0,0,0,0-.21A3.84,3.84,0,0,0,40.56,43.22Z"/><path class="cls-7" d="M38.49,42.48c0,.06,0,.13,0,.21a4,4,0,0,1-1.1.14,3.73,3.73,0,0,1-.5,0,1.58,1.58,0,0,1,0-.19v0A3.83,3.83,0,0,0,38.49,42.48Z"/><path class="cls-7" d="M40.59,42.8a3.89,3.89,0,0,1-.51,0,4.08,4.08,0,0,1-1.1-.14,1.83,1.83,0,0,0,0-.21,3.8,3.8,0,0,0,1.59.11v0A1.16,1.16,0,0,1,40.59,42.8Z"/><path class="cls-5" d="M38.65,40.09a3,3,0,0,1-2.32.09l-.06,0-.07,0s1.87.17,2.1-.32a21.16,21.16,0,0,0,.44-3.12c0,.12-.07,1.09-.1,2h0v.23A9,9,0,0,0,38.65,40.09Z"/><text class="cls-14" transform="translate(89.06 39.15)">7+</text></g></g></svg>