<svg xmlns="http://www.w3.org/2000/svg" viewBox="0 0 24.76 27.61"><defs><style>.cls-1{fill:#1f2842;stroke:#1f2842;stroke-miterlimit:10;}</style></defs><title>shopping bag 2</title><g id="Layer_2" data-name="Layer 2"><g id="Layer_1-2" data-name="Layer 1"><g id="shopping_bag_2" data-name="shopping bag 2"><path class="cls-1" d="M24.26,24.63,23.45,6.68A2.46,2.46,0,0,0,21,4.28H16.85a4.54,4.54,0,0,0-9,0H3.79a2.46,2.46,0,0,0-2.48,2.4l-.81,18v.05A2.46,2.46,0,0,0,3,27.11h18.8a2.46,2.46,0,0,0,2.48-2.43ZM12.38,2.57A2.42,2.42,0,0,1,14.7,4.28H10.05A2.43,2.43,0,0,1,12.38,2.57ZM21.78,25H3a.37.37,0,0,1-.37-.35L3.42,6.75v0a.36.36,0,0,1,.37-.36H7.84v3.78a1.05,1.05,0,0,0,2.1,0V6.35h4.85v3.78a1.06,1.06,0,0,0,2.11,0V6.35H21a.36.36,0,0,1,.37.36v0l.81,17.94A.37.37,0,0,1,21.78,25Z"/></g></g></g></svg>