<svg xmlns="http://www.w3.org/2000/svg" viewBox="0 0 9.77 8.42"><title>Asset 15</title><g id="Layer_2" data-name="Layer 2"><g id="Layer_1-2" data-name="Layer 1"><path d="M9.63,1.68,5,0H4.81L.15,1.68A.23.23,0,0,0,0,1.89a.22.22,0,0,0,.15.21L2,2.73v2.2a.22.22,0,0,0,.16.21l2.63.76H5l.82-.24a.23.23,0,0,0,.16-.28.22.22,0,0,0-.28-.15l-.76.22-2.4-.69V2.88l2.33.78H5l.42-.14h0l.35-.12a.23.23,0,0,0,.14-.28A.23.23,0,0,0,5.59,3l-.7.24L2.8,2.51.91,1.88l4-1.42,4,1.42-1.42.48h0l-.18.06-.14,0h0l-.23.08a.22.22,0,0,0-.14.28A.23.23,0,0,0,7,3l.25-.09V4.76L7,4.84a.22.22,0,0,0-.15.28.22.22,0,0,0,.21.16h.07l.44-.13a.21.21,0,0,0,.16-.21V2.73L9.62,2.1a.22.22,0,0,0,.15-.21A.2.2,0,0,0,9.63,1.68Z"/><path d="M6.61,2.94v0H6.55v0h0L5,1.52a.22.22,0,0,0-.32,0,.23.23,0,0,0,0,.31L6.17,3.05V7a.55.55,0,0,0-.44.54v.3a.54.54,0,0,0,.55.55h.3a.55.55,0,0,0,.55-.55v-.3A.56.56,0,0,0,6.62,7V2.94h0Zm.07,4.63v.3a.09.09,0,0,1-.1.1h-.3a.09.09,0,0,1-.1-.1v-.3a.09.09,0,0,1,.1-.1h.3A.09.09,0,0,1,6.68,7.57Z"/></g></g></svg>