<svg xmlns="http://www.w3.org/2000/svg" viewBox="0 0 28.76 27"><defs><style>.cls-1{fill:#fff;}</style></defs><title>cart</title><g id="Layer_2" data-name="Layer 2"><g id="Layer_1-2" data-name="Layer 1"><g id="Layer_61" data-name="Layer 61"><path class="cls-1" d="M8.63,16.29a1,1,0,0,1-1-.76L5.42,4.23A2.86,2.86,0,0,0,2.61,1.92H1A1,1,0,0,1,1,0H2.61A4.79,4.79,0,0,1,7.3,3.83L9.58,15.14a1,1,0,0,1-.73,1.14H8.63Z"/><path class="cls-1" d="M9.58,23H7.8a4,4,0,0,1-.36-7.92l17.64-1.6,1.54-7.73H6.71a1,1,0,0,1,0-1.92H27.79a1,1,0,0,1,.74.36,1,1,0,0,1,.22.79l-1.92,9.59a1,1,0,0,1-.85.76L7.61,17a2,2,0,1,0,.19,4.08H9.58a1,1,0,1,1,0,1.92Z"/><path class="cls-1" d="M24.37,27a4,4,0,1,1,4-4A4,4,0,0,1,24.37,27Zm0-6a2,2,0,1,0,2,2A2,2,0,0,0,24.37,21Z"/><path class="cls-1" d="M12.37,27a4,4,0,1,1,4-4A4,4,0,0,1,12.37,27Zm0-6a2,2,0,1,0,2,2A2,2,0,0,0,12.37,21Z"/><path class="cls-1" d="M21.37,24h-6a1,1,0,1,1,0-2h6a1,1,0,1,1,0,2Z"/></g></g></g></svg>