<svg xmlns="http://www.w3.org/2000/svg" viewBox="0 0 38.01 38"><defs><style>.cls-1{fill:#fff;}</style></defs><title>categoriesop</title><g id="Layer_2" data-name="Layer 2"><g id="Layer_1-2" data-name="Layer 1"><path class="cls-1" d="M12.87,16.31H3.56A3.56,3.56,0,0,1,0,12.75V3.56A3.56,3.56,0,0,1,3.56,0h9.31a3.55,3.55,0,0,1,3.55,3.56v9.19a3.56,3.56,0,0,1-3.55,3.56M3.56,2.75a.82.82,0,0,0-.81.81v9.19a.8.8,0,0,0,.81.8h9.31a.8.8,0,0,0,.8-.8V3.56a.81.81,0,0,0-.8-.81Z"/><path class="cls-1" d="M12.91,38H3.6A3.55,3.55,0,0,1,.05,34.44V25.25A3.57,3.57,0,0,1,3.6,21.69h9.31a3.57,3.57,0,0,1,3.56,3.56v9.19A3.56,3.56,0,0,1,12.91,38M3.6,24.45a.8.8,0,0,0-.8.8v9.19a.8.8,0,0,0,.8.81h9.31a.81.81,0,0,0,.81-.81V25.25a.8.8,0,0,0-.81-.8Z"/><path class="cls-1" d="M34.45,38H25.13a3.55,3.55,0,0,1-3.55-3.56V25.25a3.57,3.57,0,0,1,3.55-3.56h9.32A3.57,3.57,0,0,1,38,25.25v9.19A3.55,3.55,0,0,1,34.45,38M25.13,24.45a.8.8,0,0,0-.8.8v9.2a.8.8,0,0,0,.8.8h9.32a.8.8,0,0,0,.8-.8v-9.2a.8.8,0,0,0-.8-.8Z"/><path class="cls-1" d="M29.79,16.31A8.15,8.15,0,1,1,38,8.16a8.16,8.16,0,0,1-8.22,8.15m0-13.55a5.4,5.4,0,1,0,5.46,5.4,5.44,5.44,0,0,0-5.46-5.41Z"/></g></g></svg>