<svg xmlns="http://www.w3.org/2000/svg" viewBox="0 0 77.31 50.48"><defs><style>.cls-1{fill:#fff;}.cls-2{fill:#6c9cfa;}</style></defs><title>Footer (3)</title><g id="Layer_2" data-name="Layer 2"><g id="HOME_PAGE" data-name="HOME PAGE"><g id="Footer"><rect class="cls-1" width="77.31" height="50.48" rx="10" ry="10"/><path class="cls-2" d="M19.34,19.54A3,3,0,0,1,16.07,22c-2.4,0-3.54-1.71-3.54-3.86s1.17-3.95,3.62-3.95a2.92,2.92,0,0,1,3.19,2.46H17.7a1.49,1.49,0,0,0-1.6-1.17c-1.35,0-1.88,1.22-1.88,2.6s.46,2.63,1.92,2.63a1.51,1.51,0,0,0,1.55-1.16Z"/><path class="cls-2" d="M21.72,20.13l-.59,1.75H19.51l2.58-7.59h2.06l2.69,7.59H25.11l-.62-1.75Zm2.42-1.35c-.54-1.6-.89-2.62-1.07-3.3h0c-.19.75-.56,1.93-1,3.3Z"/><path class="cls-2" d="M28.51,19.65c.18.77.72,1.1,1.6,1.1s1.25-.35,1.25-.9S31,19,29.7,18.66c-2.07-.48-2.58-1.23-2.58-2.26,0-1.32,1-2.22,2.79-2.22,2,0,2.81,1.09,2.92,2.2H31.18c-.08-.47-.34-1-1.31-1-.67,0-1.07.28-1.07.82s.32.74,1.55,1c2.2.52,2.69,1.34,2.69,2.41C33,21,32,22,30,22S27,21,26.86,19.65Z"/><path class="cls-2" d="M33.9,14.29h1.64v3H38.6v-3h1.64v7.59H38.6V18.6H35.54v3.28H33.9Z"/><path class="cls-2" d="M54.57,18.06A3.63,3.63,0,0,1,50.84,22c-2.38,0-3.63-1.73-3.63-3.9A3.62,3.62,0,0,1,51,14.18C53.16,14.18,54.57,15.74,54.57,18.06Zm-5.66,0c0,1.48.65,2.6,2,2.6s2-1.22,2-2.57-.59-2.56-2-2.56S48.91,16.58,48.91,18.05Z"/><path class="cls-2" d="M55.75,21.88V14.29h2c.95,1.71,2.7,4.78,3,5.61h0c-.09-.8-.08-2.11-.08-3.36V14.29h1.48v7.59H60.32c-.81-1.48-2.75-5-3.13-5.89h0c.06.66.08,2.22.08,3.58v2.31Z"/><path class="cls-2" d="M12.91,27.49h3a3.46,3.46,0,0,1,3.66,3.7,3.62,3.62,0,0,1-3.73,3.89H12.91Zm1.64,6.26h1.23c1.45,0,2.09-1.08,2.09-2.55,0-1.24-.6-2.38-2.08-2.38H14.55Z"/><path class="cls-2" d="M26,31.81H22.32v1.92h4l-.19,1.35h-5.4V27.49h5.38v1.35H22.32v1.62H26Z"/><path class="cls-2" d="M27.14,27.49h1.64v6.24h3.78l-.19,1.35H27.14Z"/><path class="cls-2" d="M34.7,27.49v7.59H33.06V27.49Z"/><path class="cls-2" d="M37.59,35.08l-2.68-7.59h1.76L37.8,31c.34,1.06.61,2,.78,2.73h0c.16-.71.45-1.63.81-2.71l1.19-3.53h1.67l-2.75,7.59Z"/><path class="cls-2" d="M48,31.81H44.32v1.92h4l-.2,1.35H42.73V27.49H48.1v1.35H44.32v1.62H48Z"/><path class="cls-2" d="M50.74,32v3h-1.6V27.49h3.33c1.66,0,2.55.91,2.55,2.09a1.81,1.81,0,0,1-1.11,1.79c.38.14,1,.53,1,1.89v.37a6.38,6.38,0,0,0,.1,1.45H53.41a5.41,5.41,0,0,1-.16-1.7v-.11c0-.83-.21-1.23-1.43-1.23Zm0-1.3h1.38c.89,0,1.24-.34,1.24-1s-.4-1-1.2-1H50.74Z"/><path class="cls-2" d="M57.86,35.08V32.4a.47.47,0,0,0-.07-.25l-2.61-4.66H57c.59,1.15,1.35,2.67,1.73,3.49.33-.79,1.16-2.39,1.73-3.49h1.72l-2.65,4.64a.37.37,0,0,0-.06.24v2.71Z"/></g></g></g></svg>