<svg xmlns="http://www.w3.org/2000/svg" viewBox="0 0 44.88 39"><defs><style>.cls-1{fill:#fff;}</style></defs><title>homeop</title><g id="Layer_2" data-name="Layer 2"><g id="Layer_1-2" data-name="Layer 1"><path class="cls-1" d="M43.39,18a1.53,1.53,0,0,1-.87-.28L22.39,3.35,2.26,17.72A1.5,1.5,0,0,1,.52,15.29l21-15a1.47,1.47,0,0,1,1.74,0l21,15A1.5,1.5,0,0,1,43.39,18"/><path class="cls-1" d="M5.89,9a1.5,1.5,0,0,1-1.5-1.5v-6A1.5,1.5,0,0,1,5.89,0h6a1.5,1.5,0,0,1,0,3H7.39V7.5A1.5,1.5,0,0,1,5.89,9"/><path class="cls-1" d="M35.89,39h-7.5a1.5,1.5,0,0,1-1.5-1.5V27h-9V37.5a1.5,1.5,0,0,1-1.5,1.5H8.89a4.5,4.5,0,0,1-4.5-4.5v-15a1.5,1.5,0,0,1,3,0v15A1.5,1.5,0,0,0,8.89,36h6V25.5a1.5,1.5,0,0,1,1.5-1.5h12a1.5,1.5,0,0,1,1.5,1.5V36h6a1.5,1.5,0,0,0,1.5-1.5v-15a1.5,1.5,0,0,1,3,0v15a4.49,4.49,0,0,1-4.5,4.5"/></g></g></svg>