<svg xmlns="http://www.w3.org/2000/svg" viewBox="0 0 41.12 27.78"><defs><style>.cls-1{fill:#425064;}.cls-1,.cls-2{fill-rule:evenodd;}.cls-2{fill:#f29a33;}</style></defs><title>Footer</title><g id="Layer_2" data-name="Layer 2"><g id="HOME_PAGE" data-name="HOME PAGE"><g id="Footer"><g id="Menu-4"><path id="Rectangle" class="cls-1" d="M2.78,0H38.34a2.78,2.78,0,0,1,0,5.56H2.78A2.78,2.78,0,0,1,2.78,0Z"/><path id="Rectangle-2" data-name="Rectangle" class="cls-2" d="M2,11.11H28c1.12,0,2,1.25,2,2.78s-.91,2.78-2,2.78H2c-1.12,0-2-1.24-2-2.78S.91,11.11,2,11.11Z"/><path id="Rectangle-3" data-name="Rectangle" class="cls-1" d="M2.78,22.23H38.34a2.78,2.78,0,1,1,0,5.55H2.78a2.78,2.78,0,1,1,0-5.55Z"/></g></g></g></g></svg>