<svg xmlns="http://www.w3.org/2000/svg" viewBox="0 0 142.52 68.15"><defs><style>.cls-1{fill:#fff1e1;}.cls-14,.cls-2{fill:#fff;}.cls-3{fill:#261214;}.cls-4{fill:#414141;}.cls-5{fill:#e5e5e4;}.cls-6{fill:#fab47f;}.cls-7{opacity:0.2;}.cls-8{fill:#eb8840;}.cls-9{fill:#415da7;}.cls-10{fill:#22479a;}.cls-11{fill:#81a9d9;}.cls-12{fill:#588bc1;}.cls-13{fill:#601110;}.cls-14{opacity:0.3;}.cls-15{font-size:19.4px;fill:#f29a33;font-family:MyriadPro-Bold, Myriad Pro;font-weight:700;}</style></defs><title>13</title><g id="Layer_2" data-name="Layer 2"><g id="Layer_1-2" data-name="Layer 1"><rect class="cls-1" width="142.52" height="68.15" rx="15" ry="15"/><circle class="cls-2" cx="38.37" cy="34.08" r="24.18"/><path class="cls-3" d="M41.51,49c0,.12-.32.28-.59.31a2.94,2.94,0,0,1-1.08-.13,4.84,4.84,0,0,0-.69-.44,1.68,1.68,0,0,1-.64-.22.5.5,0,0,1,0-.43,1.43,1.43,0,0,0,.61.28c.17,0,.41.22.63.39a1.88,1.88,0,0,0,1.1.17c.27-.05.57-.13.63-.26A.42.42,0,0,1,41.51,49Z"/><path class="cls-4" d="M41.5,48.62c-.06.13-.36.21-.63.26a1.88,1.88,0,0,1-1.1-.17c-.22-.17-.46-.38-.63-.39a1.43,1.43,0,0,1-.61-.28c0-.09-.12-.61,0-.8.09.18.28.22.33.16s.17-.34.25-.42a.62.62,0,0,1,.45-.12.51.51,0,0,1,.33.27,4.17,4.17,0,0,0,.61.7l.93.75A.05.05,0,0,1,41.5,48.62Z"/><path class="cls-5" d="M39.64,47.91a0,0,0,0,1,0,0,.3.3,0,0,1,.2-.3c.11,0,.44-.08.45-.08s0,0,0,0,0,0,0,0a3,3,0,0,0-.44.08.21.21,0,0,0-.15.23Z"/><path class="cls-5" d="M39.85,48.13s0,0,0,0A.27.27,0,0,1,40,47.8a3.17,3.17,0,0,1,.46-.08s0,0,0,0,0,0,0,0-.33,0-.44.08a.22.22,0,0,0-.15.23S39.87,48.13,39.85,48.13Z"/><path class="cls-5" d="M40.11,48.3a0,0,0,0,1,0,0,.28.28,0,0,1,.2-.29c.11,0,.44-.08.45-.08s0,0,0,0a0,0,0,0,1,0,0s-.34,0-.44.08a.22.22,0,0,0-.15.23A0,0,0,0,1,40.11,48.3Z"/><path class="cls-3" d="M34.34,49a.83.83,0,0,0,.6.31A2.85,2.85,0,0,0,36,49.13a4.89,4.89,0,0,1,.7-.44,1.68,1.68,0,0,0,.64-.22.5.5,0,0,0,0-.43,1.41,1.41,0,0,1-.62.28c-.17,0-.41.22-.62.39a1.89,1.89,0,0,1-1.1.17c-.27-.05-.57-.13-.63-.26A.46.46,0,0,0,34.34,49Z"/><path class="cls-4" d="M34.36,48.62c.06.13.36.21.63.26a1.89,1.89,0,0,0,1.1-.17c.21-.17.45-.38.62-.39a1.41,1.41,0,0,0,.62-.28c0-.09.11-.61,0-.8-.1.18-.28.22-.33.16s-.17-.34-.25-.42a.62.62,0,0,0-.45-.12.51.51,0,0,0-.33.27,4.17,4.17,0,0,1-.61.7l-.93.75A.05.05,0,0,0,34.36,48.62Z"/><path class="cls-5" d="M36.22,47.91a0,0,0,0,1,0,0,.21.21,0,0,0-.15-.23,3.27,3.27,0,0,0-.44-.08s0,0,0,0,0,0,0,0,.34,0,.45.08a.3.3,0,0,1,.2.3A0,0,0,0,1,36.22,47.91Z"/><path class="cls-5" d="M36,48.13a0,0,0,0,1,0,0,.21.21,0,0,0-.14-.23c-.11,0-.44-.08-.45-.08s0,0,0,0,0,0,0,0a3.17,3.17,0,0,1,.46.08.28.28,0,0,1,.19.29A0,0,0,0,1,36,48.13Z"/><path class="cls-5" d="M35.75,48.3s0,0,0,0a.22.22,0,0,0-.15-.23c-.11,0-.44-.08-.44-.08a0,0,0,0,1,0,0s0,0,0,0,.34,0,.45.08a.28.28,0,0,1,.2.29A0,0,0,0,1,35.75,48.3Z"/><path class="cls-6" d="M42.13,29.18A6.86,6.86,0,0,1,42,31.54a9.68,9.68,0,0,0-.09,1.53,5.82,5.82,0,0,1-.77-1,7.94,7.94,0,0,0-.26-1.48,8.88,8.88,0,0,1,.1-1.46,9.38,9.38,0,0,0-.13-1.46,6.78,6.78,0,0,0-.37,1.63,10.35,10.35,0,0,0,.44,2.39,5.94,5.94,0,0,1,.33,1.6l-5.27,0c.07-.39.13-1,.2-1.5s.13-3.25.13-3.65,0-.48-.11-1.72a5.09,5.09,0,0,1-.88,2.54c0,.21.19.74.26,1.05s0,1.24.06,1.48.27.94.34,1.19-.33.55-.65.61a11.08,11.08,0,0,0-.84-2.19,6.22,6.22,0,0,1-.26-2.38A27.6,27.6,0,0,1,34.85,26a2.49,2.49,0,0,1,.74-1.89,4.36,4.36,0,0,1,2-.64c.42-.06.59-.59.63-1a.19.19,0,0,0,0-.08,4,4,0,0,0,1.15.48A5.74,5.74,0,0,0,40,23a.48.48,0,0,0,0,.27,1.1,1.1,0,0,0,.41.51A7.32,7.32,0,0,1,42.3,25c.55.68-.11,1.9-.19,2.27A5.35,5.35,0,0,0,42.13,29.18Z"/><path class="cls-7" d="M40.06,23.26a1.37,1.37,0,0,1-.7.29,1.43,1.43,0,0,1-.94-.52,2,2,0,0,1-.22-.51.19.19,0,0,0,0-.08,4,4,0,0,0,1.15.48A5.74,5.74,0,0,0,40,23,.48.48,0,0,0,40.06,23.26Z"/><path class="cls-6" d="M40.77,21c-.05-.33-.1-1.11-.44-1.39a1.54,1.54,0,0,0-1-.36,1.52,1.52,0,0,0-1,.36c-.35.28-.4,1.06-.45,1.39a4.68,4.68,0,0,0,.48,1.9,1.44,1.44,0,0,0,.94.5,1.42,1.42,0,0,0,.93-.5A4.53,4.53,0,0,0,40.77,21Z"/><path class="cls-6" d="M40.64,21.07c.09-.11.27-.24.34-.14a1.44,1.44,0,0,1-.11.88c-.14.26-.24.18-.27,0A2.2,2.2,0,0,1,40.64,21.07Z"/><path class="cls-8" d="M40.72,21.3a.29.29,0,0,1,0-.13.23.23,0,0,1,.08-.11.1.1,0,0,1,.09,0,.12.12,0,0,1,0,.05.24.24,0,0,1,0,.14.28.28,0,0,1,0,.13l0,.06-.06,0-.11.06a.16.16,0,0,0,0,.12.13.13,0,0,1,0-.13s.08-.05.11-.07l0,0,0-.05,0-.12a.25.25,0,0,0,0-.12l0,0h0a.13.13,0,0,0-.07.09A.27.27,0,0,0,40.72,21.3Z"/><path class="cls-6" d="M38,21.07c-.08-.11-.26-.24-.34-.14a1.46,1.46,0,0,0,.12.88c.13.26.23.18.26,0A2.2,2.2,0,0,0,38,21.07Z"/><path class="cls-8" d="M38,21.3a.56.56,0,0,0,0-.12.13.13,0,0,0-.07-.09h0l0,0a.17.17,0,0,0,0,.12.5.5,0,0,0,0,.12l0,.05a.1.1,0,0,0,0,0,.3.3,0,0,1,.1.07.13.13,0,0,1,0,.13.16.16,0,0,0,0-.12l-.11-.06a.12.12,0,0,1,0,0,.21.21,0,0,1,0-.06l0-.13a.36.36,0,0,1,0-.14.15.15,0,0,1,.06-.05.08.08,0,0,1,.08,0c.05,0,.06.07.08.11A.57.57,0,0,1,38,21.3Z"/><path class="cls-9" d="M38.47,32.26A11.86,11.86,0,0,1,36.06,32c-.05.22-.07.41-.15.69a1.28,1.28,0,0,1-.69.7c0,.54.2,1.69.36,2.51a24.61,24.61,0,0,1,.21,3c0,.58-.32,7.89-.33,8.45a4.53,4.53,0,0,0,2.12.15c0-.67.11-6.16.31-8.3.06-.67.26-2,.31-2.75,0-.34.14-1,.14-1h.42a21.59,21.59,0,0,0-.18,3.34c.07,1.06-.23,8.22-.28,8.59a4.13,4.13,0,0,0,2.11,0c0-.6.21-6.2.25-7A54.52,54.52,0,0,1,41.3,35c.2-.6.65-1.77.66-1.94-.25-.36-.83-.81-.86-.93a2.51,2.51,0,0,1-.19-.52A8.69,8.69,0,0,1,38.47,32.26Z"/><path class="cls-10" d="M38.34,35.51h.2c0-.06-.39-.14-.39-.14a9.6,9.6,0,0,0-.14.95c-.06.75-.25,2.08-.32,2.75-.2,2.14-.08,7.56-.55,8a1.74,1.74,0,0,1-1.68.18v.06a4.53,4.53,0,0,0,2.12.15c0-.67.11-6.16.31-8.3.06-.67.26-2,.31-2.75C38.23,36.12,38.34,35.51,38.34,35.51Z"/><path class="cls-10" d="M41.1,34.86a51.79,51.79,0,0,0-.63,5.44c0,.82-.12,6.27-.36,6.82-.11.22-1.19.38-1.8.25a.28.28,0,0,0,0,.08,4.13,4.13,0,0,0,2.11,0c0-.6.21-6.2.25-7A54.52,54.52,0,0,1,41.3,35c.2-.6.65-1.77.66-1.94A19.76,19.76,0,0,0,41.1,34.86Z"/><path class="cls-11" d="M42.29,27a2.48,2.48,0,0,0-.11.33,4.51,4.51,0,0,0-.08.8,1,1,0,0,1-1.27.22c0-.11,0-.23,0-.34a6,6,0,0,0-.29,1.36,14.9,14.9,0,0,0,.6,2.76c-.61.76-4.12.82-5.14.39,0-.2.09-.43.12-.63.07-.52.13-3.2.13-3.64a4.46,4.46,0,0,0,0-.5c0-.12,0-.28,0-.5l0,.12v0l0,.09a.56.56,0,0,1,0,.12l0,.11,0,.08,0,.08a.14.14,0,0,1,0,.06l0,.09-.06.13a2,2,0,0,1-1.4-.83,10.45,10.45,0,0,1,.34-1.3,2.62,2.62,0,0,1,.76-1.93,4.18,4.18,0,0,1,2-.63h.21a1.52,1.52,0,0,0,2.6.21s.38.19.54.27A5.12,5.12,0,0,1,42.35,25C42.81,25.56,42.48,26.45,42.29,27Z"/><path class="cls-12" d="M40.5,29.36a5.73,5.73,0,0,1,.18-1,2.62,2.62,0,0,0-.35,1.18c0,.48.32,1.95.24,2.39-.14.8-2.89.9-4.29.67,1.29.31,4.26.2,4.82-.49A14.9,14.9,0,0,1,40.5,29.36Z"/><path class="cls-12" d="M40.33,27.91a.82.82,0,0,0,.2-.12.9.9,0,0,0,.19-.15,2.57,2.57,0,0,0,.33-.33,3.89,3.89,0,0,0,.28-.39l.12-.2.1-.22c0,.08,0,.16-.07.23a1.51,1.51,0,0,1-.11.22,2.55,2.55,0,0,1-.27.4,2.18,2.18,0,0,1-.35.33A1.44,1.44,0,0,1,40.33,27.91Z"/><path class="cls-12" d="M36.68,25.87a.93.93,0,0,1-.16.35.61.61,0,0,1-.12.15l-.12.14s0,0,0,.08l0,.09a1.16,1.16,0,0,0,0,.18c0,.13,0,.25,0,.38a1.59,1.59,0,0,1,0-.38.69.69,0,0,1,0-.2.29.29,0,0,0,0-.09.73.73,0,0,1,0-.09c.09-.11.18-.19.26-.29A1.45,1.45,0,0,0,36.68,25.87Z"/><path class="cls-12" d="M40.79,28s0-.08,0-.13,0-.08,0-.13a.53.53,0,0,1,0-.12.16.16,0,0,1,.07-.11.22.22,0,0,0,0,.11s0,.09,0,.13a.69.69,0,0,1,0,.13A.27.27,0,0,1,40.79,28Z"/><path class="cls-3" d="M40.42,21.13a.65.65,0,0,0-.39-.25,1.94,1.94,0,0,1-.49-.05.43.43,0,0,0,.31.21A1.1,1.1,0,0,1,40.42,21.13Z"/><path class="cls-3" d="M38.29,21.13a.67.67,0,0,1,.39-.25,1.89,1.89,0,0,0,.49-.05.41.41,0,0,1-.31.21A1.11,1.11,0,0,0,38.29,21.13Z"/><path class="cls-8" d="M39.14,22.15l0,0a.05.05,0,0,0,0,0v0l0,0s0,0,0,0a.07.07,0,0,1,0-.05l0,0Z"/><path class="cls-8" d="M39.1,22.3s.06-.05.1-.05.06,0,0,.07,0,0-.06,0S39.13,22.35,39.1,22.3Z"/><path class="cls-8" d="M39.57,22.15l0,0s0,0,0,0,0,0,0,.05a.08.08,0,0,1,0,0l0,0s0,0,0,0a.05.05,0,0,0,0,0Z"/><path class="cls-8" d="M39.61,22.3s0-.05-.1-.05-.06,0,0,.07,0,0,.05,0S39.58,22.35,39.61,22.3Z"/><path class="cls-8" d="M39.28,22.1l0,0h.1l0,0h-.18Z"/><path class="cls-8" d="M38.75,22.69a.4.4,0,0,0,.15,0h.75l.15,0,.07,0h.07l-.06,0-.08,0-.14,0h-.61l-.16,0Z"/><path class="cls-8" d="M39.23,22.89h.24l.05,0,0,0,0,0,0,0,0,0-.1,0h-.1Z"/><path class="cls-8" d="M39.92,22.56l0,0a.08.08,0,0,1,0,0,0,0,0,0,1,0,0s0,0,0,0a0,0,0,0,1,0,0s0,0,0,0a0,0,0,0,0,0,0Z"/><path class="cls-2" d="M39.05,21.5a.46.46,0,0,1-.35,0,.41.41,0,0,1-.21-.09.25.25,0,0,1,.22-.18h.09a.43.43,0,0,1,.23.05h0a.15.15,0,0,1,.07.1A.14.14,0,0,1,39.05,21.5Z"/><path class="cls-13" d="M39.05,21.38a.16.16,0,1,1-.32,0,.17.17,0,0,1,.07-.13.43.43,0,0,1,.23.05A.24.24,0,0,1,39.05,21.38Z"/><path d="M39,21.38a.09.09,0,1,1-.18,0,.09.09,0,0,1,.18,0Z"/><path class="cls-14" d="M38.88,21.32a0,0,0,0,1-.1,0,.05.05,0,0,1,.1,0Z"/><path class="cls-3" d="M38.49,21.44a.14.14,0,0,1,0-.09.27.27,0,0,1,.08-.07.25.25,0,0,1,.09,0h.2l.09,0,.05,0,0,0,0,.05a.06.06,0,0,1,0,0,.08.08,0,0,0,0,0l0,0,0,0,0,0-.09,0H38.7l-.09,0-.07.06A.14.14,0,0,0,38.49,21.44Z"/><path class="cls-2" d="M40.23,21.44l-.1.06-.11,0h0a.44.44,0,0,1-.31,0,.12.12,0,0,1-.06-.09.15.15,0,0,1,.07-.1.42.42,0,0,1,.25-.06H40a.37.37,0,0,1,.16.07A.54.54,0,0,1,40.23,21.44Z"/><path class="cls-13" d="M40.17,21.38a.16.16,0,0,1,0,.12l-.11,0h0a.16.16,0,0,1-.13-.16.16.16,0,0,1,.08-.13H40a.37.37,0,0,1,.16.07Z"/><path d="M40.1,21.38a.09.09,0,1,1-.18,0,.09.09,0,1,1,.18,0Z"/><path class="cls-14" d="M40,21.32a.05.05,0,0,1,0,.05,0,0,0,0,1-.05-.05.05.05,0,0,1,.05-.05A.06.06,0,0,1,40,21.32Z"/><path class="cls-3" d="M40.23,21.44a.56.56,0,0,0,0-.08l-.08-.06-.08,0h-.19l-.09,0,0,0,0,0,0,0s0,0,0,0,0,0,0,0l0-.05,0,0,0,0,.1,0H40l.09,0a.23.23,0,0,1,.07.07A.25.25,0,0,1,40.23,21.44Z"/><path class="cls-13" d="M40.52,19.38c-.19-.44-1.09-.5-1.29-.5s-1.18.22-1.39.85a2.08,2.08,0,0,0,0,1.33,3.92,3.92,0,0,0,.23.79,6.53,6.53,0,0,1,0-1.1.88.88,0,0,1,.55-.35.43.43,0,0,1-.21.28,2,2,0,0,0,1-.45c0,.2-.3.38-.4.43a2.88,2.88,0,0,0,1.37-.47,4.57,4.57,0,0,1,.27,1.58c.07-.1.06-.47.14-.65a3.25,3.25,0,0,0,.17-.69C41,20.19,41,19.55,40.52,19.38Z"/><text class="cls-15" transform="translate(87.33 39.15)">14+</text></g></g></svg>