<svg xmlns="http://www.w3.org/2000/svg" viewBox="0 0 33.93 38"><defs><style>.cls-1{fill:#fff;}</style></defs><title>checkoutop</title><g id="Layer_2" data-name="Layer 2"><g id="Layer_1-2" data-name="Layer 1"><path class="cls-1" d="M33.93,34.46,32.77,8.83A3.51,3.51,0,0,0,29.23,5.4H23.36a6.49,6.49,0,0,0-12.8,0H4.7A3.51,3.51,0,0,0,1.16,8.83L0,34.46v.07A3.51,3.51,0,0,0,3.54,38H30.39a3.51,3.51,0,0,0,3.54-3.47v-.07M17,3A3.46,3.46,0,0,1,20.28,5.4H13.64A3.46,3.46,0,0,1,17,3M30.39,35.05H3.54a.52.52,0,0,1-.53-.5L4.16,8.93a.17.17,0,0,0,0-.07.52.52,0,0,1,.53-.51h5.78v5.4a1.5,1.5,0,0,0,3,0V8.35h6.93v5.4a1.5,1.5,0,0,0,3,0V8.35h5.82a.52.52,0,0,1,.53.51s0,.05,0,.07l1.15,25.62a.52.52,0,0,1-.53.5"/></g></g></svg>