<svg xmlns="http://www.w3.org/2000/svg" viewBox="0 0 32.42 32.58"><defs><style>.cls-1{fill:#fff;fill-rule:evenodd;}</style></defs><title>Footer</title><g id="Layer_2" data-name="Layer 2"><g id="HOME_PAGE" data-name="HOME PAGE"><g id="Footer"><path class="cls-1" d="M27.7,4.73A16.14,16.14,0,0,0,.14,16.14a16,16,0,0,0,2.15,8.07L0,32.58l8.56-2.24a16.18,16.18,0,0,0,7.71,2h0A16.16,16.16,0,0,0,27.7,4.73ZM16.28,29.57h0A13.3,13.3,0,0,1,9.45,27.7L9,27.41,3.88,28.75l1.35-5-.32-.5a13.42,13.42,0,1,1,11.37,6.28Z"/><path class="cls-1" d="M23.64,19.52c-.4-.2-2.39-1.17-2.76-1.31s-.63-.2-.9.2S18.93,19.73,18.7,20s-.47.3-.87.1a11.08,11.08,0,0,1-3.25-2,12,12,0,0,1-2.24-2.79c-.24-.4,0-.62.17-.82a9.26,9.26,0,0,0,.61-.71,2.7,2.7,0,0,0,.4-.67.74.74,0,0,0,0-.71c-.1-.2-.91-2.19-1.24-3s-.66-.68-.91-.69h-.78a1.49,1.49,0,0,0-1.07.5,4.54,4.54,0,0,0-1.41,3.37,7.88,7.88,0,0,0,1.64,4.17c.21.27,2.85,4.34,6.9,6.09a21.07,21.07,0,0,0,2.29.85,5.45,5.45,0,0,0,2.55.16,4.13,4.13,0,0,0,2.72-1.92A3.39,3.39,0,0,0,24.41,20C24.31,19.83,24,19.73,23.64,19.52Z"/></g></g></g></svg>